ply
format ascii 1.0
comment Created by Open3D
element vertex 308
property double x
property double y
property double z
property double nx
property double ny
property double nz
property uchar red
property uchar green
property uchar blue
element face 612
property list uchar uint vertex_indices
end_header
1.39152 3.00784 -2.60347 1.18369 0.713921 -0.174566 100 100 100
5.30332 -0.61073 -1.62357 1.24079 0.0313554 -1.14466 82 82 82
5.85676 0.89775 0.01627 1.23445 0.0701483 0.269174 50 50 50
1.69604 -3.23546 3.24013 1.00281 -0.763829 0.445131 105 105 105
2.2477 -2.65157 -2.13054 -0.376178 -1.04861 -1.41294 205 205 205
1.05977 -2.44797 -3.10936 1.24494 -0.404779 -0.46136 135 135 135
2.29677 2.96048 0.8422 1.02535 1.66246 -0.195244 70 70 70
2.40472 1.83562 3.59577 1.08248 1.06721 1.26188 108 108 108
1.45802 1.11004 4.53733 0.581507 0.683254 1.76013 109 109 109
-1.4058 1.0976 4.24232 -0.933961 0.676671 1.60402 106 106 106
0.75984 3.64878 1.39512 0.280838 1.11982 -0.532318 90 90 90
1.86829 3.25895 2.07767 0.867404 0.913534 -0.171128 89 89 89
2.27477 2.54038 3.157 1.0825 0.533283 0.400029 95 95 95
1.81235 1.78814 4.18987 0.837802 0.135214 0.9466 94 94 94
0.32866 1.06808 4.76957 0.0182714 0.207615 1.5682 107 107 107
-0.68078 1.30528 4.61289 -0.481505 -0.120304 1.17045 100 100 100
-2.01877 2.36807 2.93602 -1.18954 0.4421 0.283092 100 100 100
-2.18666 -1.15001 3.75821 -1.34717 -0.512713 1.34784 96 96 96
-0.91716 -0.94662 4.63057 -0.675384 -0.405084 1.80947 109 109 109
-2.57983 -1.76337 3.03146 -1.40756 -0.411064 0.648988 96 96 96
-0.09404 -3.87836 1.04128 -0.239808 -1.95649 -0.0898957 94 94 94
0.88167 3.38961 -0.23388 0.276516 1.88955 -0.764681 117 117 117
2.04657 2.97312 -0.76182 -0.781815 1.16839 -0.142573 16 16 16
1.45407 3.07682 -0.50424 0.579417 1.72403 -0.90775 71 71 71
-0.04973 -3.71969 -0.22301 -0.21636 -1.87253 -0.758929 128 128 128
-4.01558 -0.57194 1.74624 -0.350369 -0.477649 1.17408 101 101 101
2.07585 -3.68558 0.66039 -0.467117 -1.59579 0.0639577 181 181 181
2.98983 1.71171 2.92403 1.39211 1.00164 0.906413 162 162 162
2.76864 2.59389 2.06596 1.27506 1.46847 0.452342 126 126 126
1.94961 -3.70284 1.57906 -0.533921 -1.60492 0.550097 213 213 213
0.27688 3.57986 -1.13869 0.593851 1.01662 0.600562 101 101 101
1.4386 -3.76203 2.0358 0.718903 -1.46871 0.122104 121 121 121
2.53321 -2.75064 3.14467 -0.225093 -1.10104 1.37858 220 220 220
2.12083 -2.75546 3.35229 0.932251 -1.36228 1.13304 131 131 131
1.72858 0.3639 -3.46719 1.64509 0.171948 -1.26603 134 134 134
-1.38894 3.42017 0.62541 -0.00462995 1.78926 0.899685 127 127 127
-0.8403 0.92165 -4.66171 0.285698 0.467097 -1.89814 120 120 120
1.52534 -2.82761 3.80696 0.912482 -0.548004 0.745085 98 98 98
-0.78828 3.84221 -1.27347 0.0301928 1.15545 0.52924 95 95 95
-2.324 3.55574 -2.05519 -0.640956 1.43243 -0.201628 113 113 113
-2.57697 3.16072 -2.99225 -0.916341 0.794821 -0.3803 105 105 105
-2.34616 2.31615 -4.03039 -0.794202 0.347894 -0.92966 100 100 100
-1.37767 1.56421 -4.61425 -0.281699 -0.0500156 -1.23863 102 102 102
2.33023 1.06551 -2.98778 -0.631709 0.158923 -1.3205 58 58 58
1.47162 1.12281 -3.41932 1.3676 0.144976 -0.923495 109 109 109
-3.22897 -1.68577 -3.82808 -0.978332 -0.91269 -1.457 119 119 119
0.26989 -1.53622 -4.08366 0.850067 -0.377927 -1.28459 112 112 112
0.5174 -3.44712 -1.24906 0.957926 -0.933507 0.523068 149 149 149
-1.32601 -1.44637 -4.6336 -0.0175642 0.125245 -1.26795 103 103 103
-2.55585 -1.74296 -4.28678 -0.668368 -0.0317038 -1.08442 101 101 101
5.14173 1.82495 0.91398 0.856073 0.560801 0.744222 74 74 74
-3.45474 -2.43445 -3.03327 -1.12092 -0.853247 -0.728753 112 112 112
-2.41717 -3.65768 -1.44073 -0.594981 -1.04493 0.421641 99 99 99
-4.28845 -1.85307 0.30264 -1.53898 -1.00122 0.728882 113 113 113
-4.70273 -1.66114 -1.14764 -1.75821 -0.899657 -0.0385727 117 117 117
-4.87415 -0.60013 -2.22312 -1.84892 -0.338194 -0.607692 114 114 114
-4.73192 0.89177 -2.47963 -1.77366 0.451285 -0.743431 112 112 112
-3.84672 2.78013 -0.49395 -1.30523 1.45056 0.307345 114 114 114
-4.79031 -1.58788 -0.31592 -0.760338 -1.01526 0.0828302 100 100 100
-5.06685 -0.9963 -1.50848 -0.906677 -0.70221 -0.548245 101 101 101
3.51345 2.5491 1.32154 0.0941587 1.19716 0.77787 97 97 97
-5.08063 0.20908 -2.13738 -0.913969 -0.0643506 -0.881045 98 98 98
-4.82596 1.53043 -1.9429 -0.779204 0.634878 -0.778131 101 101 101
2.81718 -0.49996 -2.7564 -0.0748223 0.0899724 -1.74413 156 156 156
2.0033 -1.82066 -2.63667 -0.505509 -0.608912 -1.68077 249 249 249
1.21927 -1.88617 -3.095 1.35246 -0.563112 -0.761416 152 152 152
1.51108 2.02605 -3.3893 1.24696 0.19438 -0.59041 107 107 107
-2.16339 2.40319 2.42562 -1.26607 0.460685 0.0129995 131 131 131
1.15891 -3.43721 -0.680165 -0.264558 -1.5937 -0.823139 184 184 184
4.89622 -1.54955 2.99646 1.02536 -0.465447 1.30015 232 232 232
0.17956 3.59039 0.898565 -0.0606289 1.54236 -0.48025 115 115 115
-3.91075 -0.16046 -3.87486 -1.33911 -0.105531 -1.48176 144 144 144
-1.01299 -3.72543 0.95763 -0.430744 -1.02311 -0.762716 91 91 91
5.93793 0.06832 -0.33149 1.57661 0.390693 -0.460923 79 79 79
-0.917885 -3.69993 0.53201 -0.675768 -1.86208 -0.35939 125 125 125
-0.62669 0.1524 -4.7766 0.398735 0.0600273 -1.95894 153 153 153
-0.9208 -3.69839 -0.442937 -0.0791158 -1.63515 0.136227 117 117 117
3.72871 0.156775 -2.83156 0.108335 -0.321959 -1.23783 64 64 64
5.44686 2.07156 0.30192 1.01754 0.691302 0.420334 62 62 62
-0.64248 -3.9351 1.28633 -0.234679 -1.13406 -0.588775 99 99 99
4.17182 -3.18993 2.19559 0.642022 -1.3335 0.876351 208 208 208
4.04833 1.65842 -2.72002 0.27747 0.472678 -1.17881 16 16 16
3.53421 2.75994 -1.92624 0.00540983 1.05558 -0.758758 0 0 0
1.28795 3.41591 0.51616 0.49151 1.90347 -0.367777 113 113 113
5.89725 1.36796 -0.69073 1.25588 0.318973 -0.104954 37 37 37
-0.62631 0.15057 4.84479 -0.521473 0.175524 1.92284 143 143 143
5.74452 0.00801 2.07034 1.47426 0.358779 0.810071 220 220 220
0.68431 2.8534 4.42181 0.240869 0.698926 1.06934 97 97 97
0.19321 3.94717 2.85245 -0.0190099 1.27772 0.238868 97 97 97
-0.01716 1.85525 4.82395 -0.130333 0.170727 1.28214 106 106 106
1.3334 -3.6567 0.42081 0.515561 -1.8392 -0.418234 149 149 149
-5.79087 0.05129 -0.59978 -1.28981 -0.147849 -0.0673821 89 89 89
0.04315 3.52953 3.81981 -0.0984182 1.05672 0.750773 94 94 94
-4.59187 -1.33703 -2.51554 -1.69955 -0.728145 -0.762434 148 148 148
0.202285 -1.71405 4.78845 0.0646761 -0.384965 1.57875 105 105 105
1.93911 3.21543 2.92942 0.904881 0.890504 0.279599 107 107 107
0.24262 -4.10611 1.88915 0.233696 -1.22455 -0.269777 94 94 94
3.55167 2.049 2.19807 0.313853 1.43882 0.877663 178 178 178
-0.45899 -4.16356 2.98488 -0.13758 -1.25496 0.310059 89 89 89
0.58124 -2.73966 4.52695 0.412886 -0.501463 1.12609 95 95 95
1.76172 2.60798 3.9916 0.81101 0.569055 0.84168 101 101 101
-1.42187 -1.66838 4.46052 -0.647114 0.0654368 1.09093 96 96 96
-1.54144 -3.5739 0.304345 -0.0853321 -1.91185 0.729785 127 127 127
-3.30976 2.46419 1.03776 -1.02108 1.28337 1.11789 121 121 121
-2.34184 -2.80502 3.04487 -1.13394 -0.53605 0.341804 97 97 97
-1.76001 -3.66722 2.68524 -0.82605 -0.992306 0.151496 92 92 92
0.78229 -4.00203 2.83257 0.519277 -1.16948 0.22946 90 90 90
-3.03155 -3.3337 -0.64782 -0.873862 -1.78474 0.225921 144 144 144
-0.9401 -3.69618 3.76281 -0.392173 -1.00763 0.721722 88 88 88
-1.0611 4.07489 -1.88529 -0.114177 1.27858 0.205478 109 109 109
-0.46395 2.76414 -4.43408 0.201821 0.58496 -1.14328 93 93 93
3.6512 3.21833 -0.52265 0.0673183 1.29815 -0.0160099 15 15 15
1.14447 -3.25963 3.83991 0.710934 -0.776619 0.762521 94 94 94
2.40834 -2.29392 3.58918 1.08439 -1.11804 1.2584 145 145 145
-0.60341 4.04003 -2.82679 0.128022 1.26013 -0.292742 94 94 94
0.82378 2.60662 -3.8068 0.883258 0.501604 -0.811341 91 91 91
4.47448 1.96604 1.50587 0.802183 1.39492 0.511367 119 119 119
4.80894 0.05039 -2.38279 0.679971 -0.378255 -1.00035 53 53 53
1.1463 3.53922 3.48154 0.485344 1.06185 0.571768 95 95 95
-1.72023 2.66072 -4.33894 -0.462974 0.530233 -1.09294 102 102 102
-1.85897 3.86452 -2.65066 -0.536392 1.16726 -0.199538 106 106 106
0.10408 3.88924 -1.87532 0.502409 1.18034 0.210754 97 97 97
-0.25145 -3.85915 0.59197 -0.323105 -1.94633 -0.32766 128 128 128
-0.07176 3.48375 -3.72482 0.409359 0.965761 -0.767959 90 90 90
-1.24377 -3.94765 -1.34172 0.0259553 -1.19838 0.474035 102 102 102
-2.0274 -0.76479 -4.66776 -0.342488 -0.425329 -1.90134 132 132 132
-2.14992 -2.10625 3.85852 -1.03238 -0.166277 0.772369 101 101 101
-2.11156 -3.85524 -3.04149 -0.433259 -1.14947 -0.425445 94 94 94
2.8518 1.3951 -3.00785 -0.355706 0.333335 -1.33112 68 68 68
0.03949 -3.44004 -3.32062 0.705027 -0.92976 -0.573154 91 91 91
2.83715 2.30198 -2.51696 -0.363458 0.813235 -1.07135 54 54 54
2.83936 -0.42786 3.89907 1.31248 -0.130568 1.42238 173 173 173
1.10471 1.99163 4.65001 0.463335 0.242897 1.1901 105 105 105
1.25221 -1.01478 4.78772 0.472597 -0.441153 1.89264 130 130 130
-3.01409 -3.09666 -3.27389 -0.910858 -0.748051 -0.548426 106 106 106
-1.64638 -2.20963 -4.61089 -0.187097 -0.278655 -1.25594 104 104 104
-2.89194 2.51454 -3.42486 -0.799983 1.31002 -1.24363 119 119 119
5.68665 0.62341 -1.64906 1.14443 -0.0750262 -0.61208 44 44 44
-1.69071 -2.97324 3.95287 -0.789379 -0.625068 0.822297 91 91 91
3.96935 -0.70573 -2.48659 0.53488 -0.0189164 -1.60135 111 111 111
-0.14878 -3.85314 -2.36808 0.605399 -1.14836 -0.0690915 101 101 101
-1.08582 -3.69802 -3.62756 0.109539 -1.06628 -0.73558 90 90 90
-2.02423 -3.21586 -4.01253 -0.387046 -0.811129 -0.939297 93 93 93
5.70247 0.08168 -1.20318 1.1528 -0.361697 -0.376131 45 45 45
2.95491 0.085405 -2.86174 -0.301143 -0.359726 -1.25381 90 90 90
-3.13198 -1.65898 2.04913 -1.38721 -0.840279 1.04826 121 121 121
-5.45587 -0.48552 -1.44658 -1.11254 -0.431917 -0.515489 106 106 106
5.16158 2.57855 -0.74744 0.866577 0.959589 -0.134964 27 27 27
-4.88898 0.56195 1.43119 -0.812552 0.12238 1.00736 93 93 93
-2.18394 1.57206 -4.38239 -0.425326 0.811279 -1.75033 114 114 114
0.920325 -3.90158 1.24465 0.296971 -1.96878 0.0177205 115 115 115
-5.50596 0.59373 -1.62691 -1.13904 0.139197 -0.610916 99 99 99
-0.529985 -0.82478 -4.62397 0.449909 -0.457074 -1.87817 135 135 135
-4.10674 1.8045 1.29988 -0.398606 0.779909 0.937872 99 99 99
-1.96113 -4.01779 -1.86678 -0.353655 -1.23549 0.196185 104 104 104
-0.54859 2.81386 4.34752 -0.411554 0.678002 1.03003 98 98 98
-4.87586 2.25659 -0.56367 -0.80561 1.01915 -0.0482735 104 104 104
-5.65816 0.6416 0.31932 -1.21958 0.164529 0.418985 86 86 86
0.92972 -2.11824 4.48915 0.597293 -0.172621 1.10608 91 91 91
4.39625 2.81229 0.54852 0.461582 1.08328 0.550829 48 48 48
-2.9875 1.81445 1.98753 -1.31075 0.99778 1.01567 129 129 129
-1.14407 1.95287 4.39427 -0.726668 0.222386 1.05476 110 110 110
5.69694 -1.29803 2.17399 1.44908 -0.332348 0.86492 224 224 224
-2.21148 3.23934 -3.56603 -0.722932 0.836425 -0.683931 108 108 108
-1.68767 1.77295 3.82932 -1.01433 0.127176 0.755806 94 94 94
2.63074 -1.36986 -2.70498 -0.173482 -0.370359 -1.71692 197 197 197
5.50362 -1.92269 -1.04729 1.34678 -0.662904 -0.839708 184 184 184
-1.74476 -3.41171 1.57633 -0.817981 -0.857096 -0.435314 86 86 86
-1.01606 1.95157 -4.70673 -0.0903432 0.154966 -1.28756 110 110 110
3.65513 -3.15922 -1.43103 0.368602 -1.31725 -1.04277 238 238 238
-0.46334 -1.99473 -4.52881 0.438941 -0.164935 -1.2125 112 112 112
-1.52889 3.09995 2.03901 -0.930306 0.829394 -0.191586 90 90 90
-2.5845 -2.48458 2.35056 -1.26235 -0.36648 -0.0256089 99 99 99
5.77544 -2.12175 1.26215 1.49062 -0.768242 0.382395 210 210 210
4.13109 2.43325 1.20622 0.321265 0.8827 0.898869 89 89 89
3.56592 0.56163 3.33586 0.321394 0.651742 1.47976 222 222 222
-0.82638 3.75095 2.4067 -0.558554 1.17389 0.00298744 105 105 105
-4.05554 -1.55257 1.0731 -1.06766 -0.893663 1.03035 114 114 114
3.79965 -1.86618 3.44235 0.445078 -0.633 1.53611 196 196 196
-4.04302 2.72721 -1.14443 -0.886997 1.34537 -0.196234 124 124 124
-4.74832 -0.52719 1.35884 -0.738118 -0.453968 0.969075 99 99 99
-2.73444 -1.13705 3.16059 -1.63705 -0.505855 1.03159 116 116 116
2.73565 -3.91265 0.52939 -0.117966 -1.71595 -0.00536448 199 199 199
-2.60537 3.29702 0.39777 -0.648337 1.72409 0.779223 148 148 148
-0.91988 3.45391 3.41277 -0.608032 1.0167 0.535377 100 100 100
2.86375 -3.17124 -1.53395 -0.0501785 -1.32361 -1.09724 255 255 255
5.6191 1.05953 0.87232 1.40789 0.915219 0.176106 108 108 108
4.46213 -2.38965 -1.77275 0.795648 -0.910009 -1.2236 218 218 218
4.81131 -2.95299 -0.84603 0.980426 -1.20812 -0.733205 218 218 218
0.07755 3.52207 -0.510483 0.370256 1.59629 0.106846 111 111 111
-1.52846 2.58425 3.75757 -0.930078 0.556498 0.717837 106 106 106
-0.483563 3.66739 -0.479823 0.474475 1.92008 0.314821 125 125 125
6.12767 -0.75119 1.257 1.67701 -0.0429728 0.37967 197 197 197
1.81236 3.2812 1.2432 0.769018 1.83218 0.016954 139 139 139
-0.7578 -2.88383 -4.31287 0.28312 -0.635426 -1.09823 95 95 95
1.3089 -3.79217 1.93105 0.797947 -1.05843 -0.247604 110 110 110
-5.57689 1.36206 -0.6392 -1.17658 0.54578 -0.0882422 89 89 89
4.2812 1.33119 2.73283 0.699904 1.05898 1.16065 240 240 240
0.68595 -3.29426 -2.22837 1.04712 -0.852617 0.00483987 121 121 121
4.20155 -1.50158 -2.3463 0.657755 -0.440062 -1.52711 196 196 196
-0.32435 -3.72423 -1.3083 0.512491 -1.08015 0.49172 98 98 98
5.97885 0.41861 1.04688 1.59826 0.576059 0.268479 170 170 170
4.24879 0.37429 3.33407 0.682753 0.552606 1.47881 224 224 224
1.80445 -2.41886 3.83812 0.86328 -0.900006 1.18061 118 118 118
5.1168 -2.38382 2.26273 1.14208 -0.906923 0.91188 222 222 222
-1.70177 2.94795 2.95208 -1.02179 0.748959 0.29159 110 110 110
3.4139 -1.23023 -2.6296 0.240948 -0.29647 -1.67703 199 199 199
-4.33477 2.1984 -1.81122 -1.5635 1.14272 -0.389724 119 119 119
-4.96347 -1.22029 0.54616 -0.851971 -0.820741 0.539023 106 106 106
2.60513 -3.69753 -0.58904 -0.187034 -1.60211 -0.597212 241 241 241
4.3496 1.80958 2.11478 0.736099 1.31213 0.833588 202 202 202
6.18481 -0.43687 0.22087 1.70725 0.123358 -0.168626 159 159 159
-1.2017 3.60122 -3.73471 -0.18858 1.02792 -0.773193 91 91 91
3.95232 -3.71133 1.11165 0.525868 -1.60941 0.302754 212 212 212
2.56561 3.0008 -1.50027 -0.507151 1.18303 -0.533344 51 51 51
-2.78665 0.8579 3.03019 -1.66468 0.549827 0.96259 126 126 126
3.27333 -2.19796 -2.31192 0.166562 -0.808571 -1.50892 244 244 244
0.58593 0.83102 -4.14786 1.04043 0.419138 -1.62622 118 118 118
-3.44853 -1.17006 1.91851 -1.55473 -0.581556 0.979137 116 116 116
2.68187 1.35123 3.76873 1.22914 0.810886 1.35341 166 166 166
-3.11624 -3.24222 -1.51458 -0.918678 -1.73633 -0.232749 118 118 118
-0.59151 -2.97413 4.51644 -0.207707 -0.625539 1.12053 90 90 90
-1.76406 0.49076 4.26485 -1.12354 0.355545 1.61594 135 135 135
0.25909 -3.73289 3.83364 0.242411 -1.02706 0.759203 88 88 88
-1.10183 -4.1061 -2.59459 0.101067 -1.28222 -0.188955 93 93 93
0.13605 -0.47089 4.97289 -0.118049 -0.153338 1.99062 142 142 142
-2.33535 1.82626 2.8585 -1.42586 1.06226 0.871736 110 110 110
4.99199 -3.08502 1.31246 1.07604 -1.27798 0.409018 217 217 217
-2.51035 2.184 2.13631 -1.21166 1.21275 0.892788 116 116 116
6.05247 -1.5665 0.10528 1.63722 -0.474416 -0.229794 180 180 180
-3.43616 1.79044 1.61158 -0.0437531 0.772469 1.10282 98 98 98
-0.33982 3.5332 0.26612 0.55054 1.84907 0.709557 130 130 130
0.57769 3.56662 -2.88199 0.753033 1.00961 -0.321953 90 90 90
4.6353 -3.43727 0.23074 0.887285 -1.46439 -0.163403 220 220 220
-2.73127 -2.04694 2.42663 -1.34002 -0.134891 0.0146456 97 97 97
0.42703 -0.51232 -4.34803 0.95634 -0.291727 -1.73215 154 154 154
-2.41304 1.31321 3.30075 -1.46697 0.790767 1.10576 127 127 127
-5.24646 1.56745 0.48781 -1.00172 0.654468 0.508146 89 89 89
-3.83636 -0.99253 1.64815 -0.25553 -0.700215 1.12217 137 137 137
1.02056 0.929875 -3.90222 1.12891 0.0428791 -1.17903 121 121 121
5.35115 1.19029 1.71406 1.2661 0.984414 0.621536 194 194 194
-1.61695 3.76349 -1.16856 -0.125288 1.97093 -0.0496431 114 114 114
2.45237 0.38133 4.30735 1.10769 0.297637 1.63843 148 148 148
1.21052 3.78196 2.2897 0.519327 1.1903 -0.0589263 104 104 104
-2.64126 -2.37687 -4.17025 -0.713565 -0.367155 -1.02276 107 107 107
-2.58921 3.60552 -0.75494 -0.639786 1.88734 0.169235 148 148 148
3.41366 -2.94712 2.81379 0.240821 -1.20501 1.20349 203 203 203
0.79618 0.12606 -4.16346 1.15169 0.0460888 -1.63448 157 157 157
5.12219 -1.2377 -1.81864 1.14494 -0.300423 -1.24789 160 160 160
1.76628 0.47448 4.6571 0.744631 0.34693 1.82351 137 137 137
2.79677 -3.5084 2.06775 -0.0856228 -1.50203 0.808701 173 173 173
-3.1121 1.74864 -3.96642 -0.916487 0.904721 -1.53021 141 141 141
1.10207 3.27928 -1.42125 1.03052 0.85756 0.451038 95 95 95
-3.08327 0.50229 -4.41676 -0.901231 0.245181 -1.76852 143 143 143
0.88761 0.2085 4.93316 0.279659 0.206179 1.9696 138 138 138
0.66804 -3.82411 0.25339 0.163468 -1.92779 -0.506829 138 138 138
-1.64206 -3.65827 -0.450297 -0.138575 -1.95649 0.330446 126 126 126
4.13166 -2.46546 2.98183 0.620771 -0.950126 1.29241 213 213 213
5.9048 -0.88064 -0.81689 1.55908 -0.111475 -0.717785 138 138 138
0.21796 3.53842 0.508057 -0.0747043 1.9683 -0.372065 121 121 121
1.78069 -3.48265 -1.11242 -0.623309 -1.4884 -0.874173 196 196 196
-2.62592 -3.34154 0.06738 -0.659212 -1.78889 0.604388 143 143 143
-5.48606 -0.38521 0.51485 -1.12851 -0.378835 0.522455 90 90 90
-0.07012 1.2144 -4.50354 0.410227 -0.235127 -1.18004 105 105 105
-2.9157 -0.37495 3.08792 -1.73297 -0.102569 0.99314 133 133 133
0.23585 3.92371 1.8374 0.00355426 1.26531 -0.298273 106 106 106
-4.24242 2.40442 0.38275 -0.470408 1.09737 0.45255 103 103 103
3.18506 -1.66536 3.48285 0.119851 -0.526731 1.55754 194 194 194
-5.1643 1.59891 -1.54373 -0.958245 0.671116 -0.566899 107 107 107
-3.29262 3.13048 -0.04062 -1.01201 1.63596 0.547237 143 143 143
-0.38642 3.6573 1.27055 -0.325737 1.12433 -0.598237 104 104 104
4.48123 2.66962 -1.71382 0.506551 1.00778 -0.64635 22 22 22
-4.31246 1.66236 -2.82134 -1.55169 0.859064 -0.924257 145 145 145
5.04241 -0.34689 3.01295 1.10272 0.170974 1.30888 241 241 241
0.840875 -1.69251 -3.65347 1.15222 -0.460629 -1.05695 141 141 141
5.24409 1.6864 -1.98493 0.910239 0.487484 -0.789815 24 24 24
-0.27555 -1.48894 4.77627 -0.040508 0.16039 1.25802 96 96 96
5.01844 0.81728 2.56674 1.09003 0.787026 1.07275 229 229 229
-3.14763 -0.81339 -4.30489 -0.935289 -0.451047 -1.70932 142 142 142
1.86084 -0.68287 -3.16375 1.71508 -0.381979 -1.10545 158 158 158
-0.99775 -4.07179 1.95202 -0.42268 -1.2064 -0.236507 99 99 99
-3.68497 2.53637 -2.72859 -1.21964 1.32157 -0.875175 151 151 151
-5.32473 -1.13503 -0.50492 -1.04314 -0.775623 -0.0171843 104 104 104
1.14663 -0.68569 -3.79033 1.33714 -0.383471 -1.43702 152 152 152
0.31341 1.85236 -4.43112 0.613182 0.102467 -1.14172 107 107 107
3.72014 -3.72806 -0.25595 0.403004 -1.61826 -0.420949 229 229 229
-1.97249 0.70835 -4.74699 -0.313431 0.354223 -1.94327 144 144 144
-3.83775 0.88571 1.79719 -0.256265 0.293707 1.20104 86 86 86
0.35859 -2.5739 -3.82321 0.873888 -0.471418 -0.839113 103 103 103
5.50803 -2.65331 0.17726 1.34911 -1.04953 -0.191704 207 207 207
-4.06985 -1.30286 -3.3659 -1.42331 -0.710063 -1.21243 147 147 147
-2.59771 2.65271 1.51485 -0.644284 1.38313 1.37036 133 133 133
-3.20158 -2.36725 1.17114 -0.963838 -1.27331 1.18847 135 135 135
2.05602 -0.53111 4.57009 0.897955 -0.185205 1.77747 134 134 134
-3.98868 1.15222 -3.57288 -1.38035 0.589109 -1.32195 146 146 146
4.09126 -0.84348 3.58117 0.599392 -0.0918106 1.60957 241 241 241
-4.62526 0.0227 -3.01212 -1.71722 -0.00860698 -1.02521 139 139 139
2.28725 -1.38171 4.23196 1.02032 -0.635324 1.59854 145 145 145
-3.0133 -3.36773 -2.30837 -0.910442 -0.891493 -0.0374943 107 107 107
-4.11988 -2.52097 -1.1085 -1.44978 -1.35466 -0.0178607 149 149 149
-1.49199 -0.48283 4.49242 -0.979571 -0.159657 1.73637 132 132 132
-3.66262 -2.71697 0.14156 -1.20781 -1.45838 0.643643 146 146 146
-4.19278 -2.20564 -2.23024 -1.48836 -1.18779 -0.61146 155 155 155
-2.47346 -0.04719 3.70972 -1.49894 0.070874 1.32218 127 127 127
2.70609 3.11815 -0.20895 -0.432812 1.24513 0.149993 25 25 25
-3.18805 -0.17623 2.53858 -1.87709 0.00258893 0.702441 114 114 114
-1.68314 3.71656 -0.25751 -0.160314 1.9461 0.432464 145 145 145
-3.12641 3.29661 -1.86389 -0.92406 1.72387 -0.417596 154 154 154
3 0 232 252
3 0 115 232
3 115 123 232
3 123 114 232
3 114 121 232
3 121 252 232
3 121 30 252
3 30 21 252
3 21 23 252
3 23 22 252
3 22 214 252
3 214 0 252
3 214 130 0
3 130 66 0
3 66 115 0
3 66 284 115
3 284 110 115
3 110 123 115
3 110 212 123
3 212 114 123
3 212 120 114
3 120 109 114
3 109 121 114
3 109 38 121
3 38 30 121
3 38 191 30
3 191 189 30
3 189 21 30
3 189 259 21
3 259 83 21
3 83 23 21
3 83 304 23
3 304 22 23
3 304 214 22
3 304 111 214
3 111 82 214
3 82 130 214
3 82 81 130
3 81 128 130
3 128 66 130
3 128 44 66
3 44 239 66
3 239 284 66
3 239 217 284
3 217 263 284
3 263 168 284
3 168 110 284
3 168 119 110
3 119 212 110
3 119 163 212
3 163 120 212
3 163 40 120
3 40 39 120
3 39 109 120
3 39 241 109
3 241 38 109
3 241 306 38
3 306 191 38
3 306 231 191
3 231 259 191
3 259 189 191
3 231 70 259
3 70 10 259
3 10 83 259
3 10 193 83
3 193 304 83
3 193 6 304
3 6 60 304
3 60 159 304
3 159 111 304
3 159 147 111
3 147 271 111
3 271 82 111
3 271 81 82
3 271 275 81
3 275 117 81
3 117 77 81
3 77 128 81
3 77 144 128
3 144 43 128
3 43 44 128
3 43 34 44
3 34 239 44
3 34 247 239
3 247 217 239
3 247 263 217
3 247 75 263
3 75 36 263
3 36 168 263
3 36 42 168
3 42 119 168
3 42 149 119
3 149 41 119
3 41 163 119
3 41 136 163
3 136 40 163
3 136 281 40
3 281 307 40
3 307 39 40
3 307 245 39
3 245 241 39
3 245 306 241
3 245 183 306
3 183 35 306
3 35 231 306
3 35 270 231
3 270 70 231
3 270 265 70
3 265 10 70
3 265 243 10
3 243 193 10
3 243 11 193
3 11 6 193
3 11 28 6
3 28 60 6
3 28 97 60
3 97 174 60
3 174 159 60
3 174 116 159
3 116 50 159
3 50 78 159
3 78 147 159
3 78 84 147
3 84 275 147
3 275 271 147
3 84 137 275
3 137 117 275
3 137 1 117
3 1 248 117
3 248 199 117
3 199 139 117
3 139 77 117
3 139 206 77
3 206 63 77
3 63 144 77
3 63 279 144
3 279 34 144
3 34 43 144
3 279 283 34
3 283 247 34
3 283 235 247
3 235 75 247
3 235 152 75
3 152 125 75
3 125 286 75
3 286 36 75
3 286 42 36
3 286 149 42
3 286 253 149
3 253 251 149
3 251 41 149
3 251 136 41
3 251 281 136
3 251 272 281
3 272 207 281
3 207 179 281
3 179 307 281
3 179 245 307
3 179 57 245
3 57 269 245
3 269 183 245
3 269 103 183
3 103 291 183
3 291 171 183
3 171 35 183
3 171 176 35
3 176 270 35
3 176 265 270
3 176 88 265
3 88 243 265
3 88 118 243
3 118 95 243
3 95 11 243
3 95 28 11
3 95 12 28
3 12 97 28
3 12 27 97
3 27 197 97
3 197 210 97
3 210 174 97
3 210 116 174
3 210 240 116
3 240 50 116
3 240 186 50
3 186 78 50
3 186 2 78
3 2 84 78
3 2 73 84
3 73 143 84
3 143 137 84
3 143 1 137
3 143 258 1
3 258 248 1
3 258 166 248
3 166 187 248
3 187 199 248
3 187 216 199
3 216 206 199
3 206 139 199
3 216 165 206
3 165 63 206
3 165 279 63
3 165 65 279
3 65 274 279
3 274 283 279
3 274 46 283
3 46 235 283
3 46 152 235
3 46 170 152
3 170 48 152
3 48 125 152
3 48 135 125
3 135 49 125
3 49 278 125
3 278 253 125
3 253 286 125
3 278 71 253
3 71 294 253
3 294 251 253
3 294 272 251
3 294 56 272
3 56 62 272
3 62 207 272
3 62 268 207
3 268 156 207
3 156 179 207
3 156 57 179
3 156 266 57
3 266 269 57
3 266 103 269
3 266 153 103
3 153 230 103
3 230 291 103
3 230 160 291
3 160 228 291
3 228 67 291
3 67 205 291
3 205 171 291
3 205 176 171
3 205 184 176
3 184 88 176
3 184 92 88
3 92 118 88
3 92 87 118
3 87 100 118
3 100 95 118
3 100 12 95
3 100 7 12
3 7 27 12
3 7 219 27
3 219 197 27
3 219 175 197
3 175 202 197
3 202 277 197
3 277 210 197
3 277 240 210
3 277 86 240
3 86 201 240
3 201 186 240
3 201 2 186
3 201 211 2
3 211 73 2
3 211 258 73
3 258 143 73
3 211 229 258
3 229 166 258
3 229 289 166
3 289 188 166
3 188 187 166
3 188 169 187
3 169 216 187
3 169 185 216
3 185 4 216
3 4 64 216
3 64 165 216
3 64 65 165
3 64 5 65
3 5 274 65
3 5 288 274
3 288 46 274
3 288 170 46
3 288 194 170
3 194 135 170
3 135 48 170
3 194 142 135
3 142 244 135
3 244 49 135
3 244 45 49
3 45 278 49
3 45 290 278
3 290 71 278
3 290 296 71
3 296 294 71
3 296 56 294
3 296 61 56
3 61 151 56
3 151 62 56
3 151 268 62
3 151 196 268
3 196 156 268
3 196 237 156
3 237 266 156
3 237 153 266
3 237 148 153
3 148 287 153
3 287 230 153
3 287 160 230
3 287 215 160
3 215 226 160
3 226 228 160
3 226 16 228
3 16 67 228
3 16 205 67
3 16 190 205
3 190 184 205
3 190 155 184
3 155 92 184
3 155 87 92
3 155 89 87
3 89 132 87
3 132 100 87
3 132 13 100
3 13 7 100
3 13 219 7
3 13 242 219
3 242 175 219
3 242 131 175
3 131 202 175
3 131 295 202
3 295 273 202
3 273 277 202
3 273 86 277
3 273 162 86
3 162 192 86
3 192 201 86
3 192 211 201
3 192 229 211
3 192 173 229
3 173 289 229
3 173 227 289
3 227 233 289
3 233 188 289
3 233 285 188
3 285 169 188
3 285 209 169
3 209 185 169
3 209 260 185
3 260 4 185
3 260 198 4
3 198 5 4
3 5 64 4
3 198 129 5
3 129 288 5
3 129 194 288
3 129 141 194
3 141 142 194
3 141 127 142
3 127 134 142
3 134 244 142
3 134 51 244
3 51 45 244
3 51 290 45
3 51 302 290
3 302 93 290
3 93 296 290
3 93 55 296
3 55 61 296
3 55 146 61
3 146 151 61
3 146 91 151
3 91 196 151
3 91 157 196
3 157 237 196
3 157 148 237
3 157 262 148
3 262 180 148
3 180 25 148
3 25 287 148
3 25 305 287
3 305 215 287
3 305 264 215
3 264 303 215
3 303 236 215
3 236 226 215
3 236 16 226
3 236 164 16
3 164 190 16
3 164 161 190
3 161 155 190
3 161 89 155
3 161 15 89
3 15 14 89
3 14 132 89
3 14 8 132
3 8 13 132
3 8 249 13
3 249 242 13
3 249 293 242
3 293 131 242
3 293 297 131
3 297 295 131
3 297 267 295
3 267 178 295
3 178 69 295
3 69 273 295
3 69 162 273
3 69 204 162
3 204 173 162
3 173 192 162
3 204 227 173
3 204 80 227
3 80 213 227
3 213 233 227
3 213 285 233
3 213 182 285
3 182 209 285
3 182 26 209
3 26 90 209
3 90 68 209
3 68 260 209
3 68 47 260
3 47 198 260
3 47 140 198
3 140 129 198
3 140 224 129
3 224 141 129
3 224 127 141
3 224 154 127
3 154 298 127
3 298 134 127
3 298 51 134
3 298 302 51
3 298 220 302
3 220 299 302
3 299 54 302
3 54 93 302
3 54 59 93
3 59 55 93
3 59 146 55
3 59 282 146
3 282 91 146
3 282 262 91
3 262 157 91
3 282 208 262
3 208 180 262
3 208 177 180
3 177 238 180
3 238 25 180
3 238 218 25
3 218 305 25
3 218 264 305
3 218 181 264
3 181 303 264
3 181 17 303
3 17 300 303
3 300 222 303
3 222 236 303
3 222 164 236
3 222 9 164
3 9 161 164
3 9 15 161
3 9 85 15
3 85 14 15
3 85 254 14
3 254 8 14
3 254 249 8
3 254 293 249
3 254 133 293
3 133 297 293
3 133 158 297
3 158 203 297
3 203 113 297
3 113 267 297
3 113 178 267
3 113 246 178
3 246 257 178
3 257 69 178
3 257 204 69
3 257 80 204
3 257 246 80
3 246 250 80
3 250 213 80
3 250 182 213
3 250 29 182
3 29 26 182
3 29 150 26
3 150 90 26
3 150 255 90
3 255 68 90
3 255 47 68
3 255 24 47
3 24 200 47
3 200 140 47
3 200 124 140
3 124 224 140
3 124 154 224
3 124 256 154
3 256 52 154
3 52 298 154
3 52 220 298
3 52 107 220
3 107 299 220
3 107 301 299
3 301 53 299
3 53 58 299
3 58 54 299
3 58 282 54
3 282 59 54
3 58 208 282
3 58 53 208
3 53 177 208
3 53 301 177
3 301 292 177
3 292 145 177
3 145 218 177
3 218 238 177
3 145 181 218
3 145 19 181
3 19 126 181
3 126 17 181
3 126 101 17
3 101 300 17
3 101 18 300
3 18 85 300
3 85 222 300
3 85 9 222
3 18 225 85
3 225 254 85
3 225 133 254
3 225 94 133
3 94 158 133
3 94 99 158
3 99 37 158
3 37 203 158
3 37 33 203
3 33 113 203
3 33 32 113
3 32 246 113
3 32 250 246
3 32 3 250
3 3 31 250
3 31 29 250
3 31 195 29
3 195 150 29
3 195 96 150
3 96 20 150
3 20 255 150
3 20 122 255
3 122 24 255
3 122 76 24
3 76 200 24
3 76 124 200
3 76 256 124
3 76 74 256
3 74 102 256
3 102 261 256
3 261 107 256
3 107 52 256
3 261 301 107
3 261 292 301
3 261 167 292
3 167 172 292
3 172 145 292
3 172 234 145
3 234 19 145
3 234 104 19
3 104 126 19
3 104 138 126
3 138 101 126
3 138 221 101
3 221 276 101
3 276 18 101
3 276 225 18
3 276 94 225
3 276 221 94
3 221 99 94
3 221 223 99
3 223 112 99
3 112 37 99
3 112 3 37
3 3 33 37
3 3 32 33
3 112 106 3
3 106 31 3
3 106 195 31
3 106 96 195
3 106 98 96
3 98 280 96
3 280 79 96
3 79 20 96
3 79 122 20
3 79 74 122
3 74 76 122
3 79 72 74
3 72 102 74
3 72 167 102
3 167 261 102
3 72 280 167
3 280 105 167
3 105 172 167
3 105 104 172
3 104 234 172
3 105 138 104
3 105 108 138
3 108 221 138
3 108 223 221
3 108 98 223
3 98 106 223
3 106 112 223
3 108 105 98
3 105 280 98
3 72 79 280
