ply
format ascii 1.0
comment Created by Open3D
element vertex 292
property double x
property double y
property double z
property double nx
property double ny
property double nz
property uchar red
property uchar green
property uchar blue
element face 580
property list uchar uint vertex_indices
end_header
8.2126 5.35993 1.77967 1.14116 0.986978 -0.748029 121 121 121
6.66612 4.21231 6.23304 0.322792 0.379685 1.60859 123 123 123
9.20122 4.43734 3.70357 1.23053 -0.265104 -0.0774356 79 79 79
6.55913 1.19416 0.656491 0.266177 -1.21745 -1.34239 201 201 201
6.33976 2.40757 -0.008138 0.15009 -0.57534 -1.6941 200 200 200
5.12229 2.17347 -0.961542 1.1778 0.526869 -0.512028 137 137 137
5.76798 0.295759 4.28298 -0.152482 -1.69286 0.576667 202 202 202
4.93038 7.00961 4.67801 0.782101 1.58284 0.950449 91 91 91
5.34111 7.30265 2.94691 0.999451 1.73791 0.0343887 97 97 97
5.81315 6.48798 5.44028 -0.562362 0.820048 0.841594 58 58 58
6.75976 6.64801 1.94036 -0.0614402 0.904728 -1.01048 106 106 106
3.64445 3.4834 6.60764 0.319066 -0.420609 1.49361 118 118 118
0.475912 5.75282 4.3235 -1.5751 0.917776 0.762849 117 117 117
1.54389 6.78297 4.51311 -1.00995 1.46291 0.863187 124 124 124
2.09864 6.84154 5.12851 -0.281496 1.21899 0.232927 121 121 121
3.2664 6.61227 5.72572 0.336455 1.09766 0.548958 116 116 116
3.9905 6.10557 6.01095 0.502186 0.966984 1.17785 110 110 110
5.38451 5.74171 5.92604 -0.789188 0.425137 1.09865 5 5 5
4.59201 5.22961 6.33576 0.892971 0.45763 1.19042 102 102 102
4.07081 7.69503 2.67343 0.327238 1.94555 -0.110332 118 118 118
9.03144 3.75178 4.29268 1.57446 0.135983 0.581798 99 99 99
2.58842 7.65114 2.89516 -0.45721 1.92232 0.00700325 125 125 125
8.71866 4.07924 5.09319 0.975166 -0.454601 0.65792 80 80 80
4.48743 7.61323 1.95779 0.673783 1.06284 0.187701 112 112 112
3.27774 7.84584 2.47169 0.0336417 1.18594 0.459644 118 118 118
2.91389 6.99171 5.07636 -0.284978 1.57337 1.16125 124 124 124
1.13836 6.81801 1.59533 -1.09847 0.642027 -0.00410585 114 114 114
0.873591 6.11684 1.04321 -1.30162 0.690698 -0.634641 115 115 115
5.43672 6.34307 0.741984 1.05004 1.23013 -1.13241 115 115 115
6.23131 6.7746 1.85775 0.262788 1.13397 -0.883455 90 90 90
5.33242 6.86887 1.15636 1.12093 0.668943 -0.236396 96 96 96
5.37194 7.11038 1.78486 1.0662 1.3004 -0.309848 94 94 94
4.63182 3.67545 -0.751317 0.624109 -0.181521 -1.92263 139 139 139
-0.241689 4.76304 3.02749 -1.95484 0.394006 0.0770298 123 123 123
-0.733272 4.31236 1.692 -0.457136 1.1694 0.0517805 109 109 109
6.44733 5.41777 0.730029 0.207016 1.01759 -1.30348 179 179 179
4.4459 1.94454 5.89791 0.525725 -1.09748 1.59599 171 171 171
5.48643 4.52417 6.26022 0.157804 0.452343 1.67789 127 127 127
6.1387 6.42199 1.48465 1.42152 1.27189 -0.739408 114 114 114
5.99425 3.57435 -0.102998 -0.0327473 0.0420919 -1.7443 208 208 208
5.32795 3.32946 -0.367637 0.992488 -0.364612 -1.71959 162 162 162
3.9023 0.675262 5.22492 0.839723 0.301193 1.12427 145 145 145
1.32404 1.80282 5.61771 -0.42563 0.0512026 2.00328 140 140 140
0.134415 2.78818 4.84991 -1.05515 0.572638 1.59698 134 134 134
1.17877 3.06939 5.87035 -0.768271 -0.777153 0.625495 113 113 113
2.0189 4.31672 -0.893243 -0.0579277 1.3815 -1.44217 135 135 135
1.17908 -0.053414 -1.3165 -0.502342 -0.931072 -1.66615 132 132 132
2.08938 -1.09264 -0.632921 -0.0206292 -1.481 -1.30441 132 132 132
3.48714 -1.24416 -0.001057 0.719031 -1.56119 -0.970043 138 138 138
2.86175 2.76004 -1.79746 -0.0184247 0.837267 -0.954377 122 122 122
1.84985 -0.571462 -1.25946 -0.553899 -0.92569 -0.669681 124 124 124
2.93786 -1.13277 -0.639368 0.0218515 -1.22272 -0.34154 127 127 127
4.16634 -1.39935 2.84474 0.979445 -0.796647 -0.135264 127 127 127
0.35979 -0.819453 4.13777 -1.03489 -0.489776 0.548976 127 127 127
0.953261 -0.009229 5.07232 -0.720843 -0.0610236 1.04352 124 124 124
-0.798065 3.12553 3.76242 -1.5486 0.751151 1.0215 128 128 128
-1.03698 1.94488 3.80117 -1.67503 0.12638 1.04201 130 130 130
6.96215 0.396338 2.81472 0.479446 -1.63964 -0.200304 245 245 245
-0.963688 0.236168 0.337871 -1.63625 -0.777831 -0.79069 128 128 128
5.89009 6.17446 0.934612 1.28996 1.1409 -1.03047 138 138 138
-0.63579 1.2974 -0.647139 -1.46273 -0.216249 -1.31194 134 134 134
4.36728 3.31713 6.48128 0.484123 -0.371135 1.9047 150 150 150
-0.332859 2.74476 -0.778961 -1.30243 0.54966 -1.38169 131 131 131
-0.25904 4.47705 0.764319 -0.206183 1.25655 -0.439128 115 115 115
-1.31938 1.02904 3.20624 -1.29588 -0.463161 0.790133 128 128 128
8.9736 6.13105 4.31032 1.11008 0.631169 0.243646 51 51 51
-1.11899 0.924476 -0.091017 -0.661252 -0.623394 -0.891752 124 124 124
-0.607296 3.36929 -0.313686 -0.390472 0.670347 -1.00958 124 124 124
6.25912 0.186697 2.89153 0.107416 -1.75058 -0.15966 217 217 217
6.08194 0.874094 0.869383 0.01366 -1.38682 -1.22973 218 218 218
4.9925 -0.457153 3.10956 1.51563 -1.14472 0.676022 170 170 170
2.01524 2.69951 -1.76107 -0.0598634 0.525714 -1.9014 133 133 133
2.08429 2.01347 5.84717 -0.490431 -0.653111 1.75433 131 131 131
0.00682625 4.26586 4.44701 -1.71461 0.0621799 0.58923 120 120 120
0.954193 6.25998 4.77509 -0.887113 0.911235 0.045909 115 115 115
5.22096 2.48832 6.05907 -0.441954 -0.53261 1.51653 207 207 207
2.16514 2.63876 6.22451 -0.246308 -1.00503 0.812904 119 119 119
-1.18598 -0.016358 1.78383 -1.75388 -0.911462 -0.0255201 130 130 130
-0.327713 3.62148 4.10443 -1.2997 1.0136 1.20248 129 129 129
0.890308 5.62336 0.56362 -1.22973 0.00985091 -0.550062 106 106 106
-1.49449 0.497921 2.35144 -0.859952 -0.849117 0.400741 126 126 126
0.71047 5.40321 0.667174 -1.45098 0.732768 -1.172 115 115 115
4.76201 -0.663178 3.50999 1.29466 -0.407079 0.216768 142 142 142
5.24366 5.10066 6.20873 0.0420797 0.329289 1.50435 83 83 83
3.68636 -1.38404 4.49148 0.725449 -0.78854 0.736152 112 112 112
0.510839 4.98091 0.506069 -0.855959 1.73298 -0.701684 122 122 122
2.72864 -2.00754 2.01964 0.268147 -1.54182 -0.23631 131 131 131
3.56544 4.86615 -0.807697 0.122847 0.0288599 -1.6141 124 124 124
-0.649716 3.71011 3.54675 -1.11667 0.649683 0.831434 121 121 121
7.91996 6.49554 2.26243 0.552514 0.824047 -0.84005 83 83 83
-0.006128 5.54212 2.91617 -1.83019 0.806277 0.0181202 132 132 132
7.82806 4.54944 6.01028 0.503884 -0.205788 1.14322 86 86 86
8.28695 6.91705 3.49132 0.746715 1.0471 -0.189751 53 53 53
3.05431 0.42457 5.40776 0.390983 0.168533 1.22103 121 121 121
7.00422 7.39091 3.90871 0.0679273 1.29786 0.0311188 54 54 54
0.299936 4.61771 0.194006 -0.967564 1.54078 -0.866821 137 137 137
8.55212 2.32991 1.46765 1.32082 -0.616438 -0.913142 226 226 226
6.81034 6.49208 5.75165 -0.0346749 0.822215 1.00636 59 59 59
8.23779 5.94741 5.6281 0.720702 0.533988 0.940984 53 53 53
1.27866 1.01924 -1.7724 -0.652903 -0.223685 -1.42426 132 132 132
7.30658 7.14337 2.85624 0.227928 1.16686 -0.52582 56 56 56
4.43231 5.43037 -0.47129 0.581573 0.327434 -1.43608 118 118 118
6.71067 7.15119 4.90396 -0.0874143 1.171 0.557782 48 48 48
3.02258 2.48584 6.27647 -0.227463 -0.811035 1.79632 129 129 129
6.96679 5.42439 6.25626 0.0481186 0.257219 1.27339 67 67 67
8.99487 4.87897 5.09142 1.12133 -0.0314041 0.656983 65 65 65
3.82409 -1.60543 2.09536 0.897337 -1.75236 0.139333 137 137 137
8.00472 6.87749 4.85011 0.597364 1.02617 0.529286 47 47 47
0.556421 6.40101 3.35193 -1.5325 1.26078 0.248718 138 138 138
2.24396 0.991263 5.55635 0.0116695 0.0450809 1.63524 125 125 125
-1.19522 2.70142 3.51057 -0.701586 0.316922 1.01413 120 120 120
2.02586 6.44485 6.11428 -0.320012 1.00907 0.754576 117 117 117
-1.37702 0.308352 1.04905 -0.797794 -0.949433 -0.288453 122 122 122
0.698384 5.60265 5.76918 -1.02248 0.563394 0.571956 116 116 116
0.988807 3.96529 6.42377 -0.868797 -0.30306 0.91835 117 117 117
2.46975 4.01293 7.08283 -0.0851131 -0.277852 1.26711 115 115 115
3.08963 6.34552 6.28748 0.242913 0.956502 0.846228 121 121 121
1.23322 6.41694 5.43133 -0.739459 0.994295 0.393174 123 123 123
0.370554 4.66364 5.64311 -1.19596 0.0664905 0.505244 117 117 117
-0.50575 1.56019 4.53841 -1.39392 -0.0771906 1.43214 150 150 150
1.60423 5.19541 6.8213 -0.543131 0.347889 1.12872 109 109 109
5.07935 4.40831 -0.507089 0.860933 0.206289 -1.79339 145 145 145
9.32975 5.05459 3.84815 1.29854 0.0615284 -0.00092555 72 72 72
-2.27365 2.50753 1.29288 -1.27227 0.214325 -0.159424 106 106 106
1.87273 7.6078 1.13047 -0.709859 1.05997 -0.250097 116 116 116
4.46206 1.31003 5.43347 -0.154633 -1.29469 1.26785 178 178 178
1.19125 6.76327 0.828047 -1.07048 0.613064 -0.410133 120 120 120
3.47127 6.21293 -0.763158 0.136052 0.321837 -1.25216 117 117 117
4.73224 3.62384 6.32782 0.67725 -0.208833 1.82349 153 153 153
2.49373 7.93269 1.91409 -0.381237 1.23189 0.164574 124 124 124
4.4631 6.33597 -0.382006 0.660906 0.386945 -1.05047 123 123 123
6.52283 0.673403 1.49099 0.246969 -1.49302 -0.900795 216 216 216
3.00268 7.53357 0.096431 -0.111913 1.02069 -0.797288 109 109 109
4.52096 7.63417 1.14612 0.691523 1.07392 -0.241818 116 116 116
3.53552 -1.69337 1.04668 0.744633 -1.7989 -0.415607 156 156 156
2.3153 0.257501 -2.19627 -0.307591 -0.487021 -1.16542 117 117 117
5.18706 5.155 -0.277756 0.917933 0.601425 -1.67203 140 140 140
4.8077 -0.049653 -0.929883 1.01133 -0.64956 -0.495274 118 118 118
0.326818 0.837319 5.03891 -0.953339 -0.459716 1.69699 149 149 149
3.69072 2.40871 -1.96611 0.420249 0.651351 -1.04362 121 121 121
4.90436 0.880241 -1.37791 1.06248 -0.157481 -0.732362 114 114 114
2.44717 -0.632711 5.43957 0.0697016 -0.390956 1.23786 116 116 116
2.01392 1.25587 -2.28523 -0.467072 0.0412928 -1.2125 125 125 125
1.19352 -1.1401 4.89572 -0.593702 -0.659457 0.950069 117 117 117
8.46577 4.73529 1.39896 1.27512 0.656435 -0.949491 185 185 185
3.2255 -2.16998 3.26282 0.481572 -1.20444 0.0859712 119 119 119
2.01145 -2.20942 2.55839 -0.160875 -1.22532 -0.286797 123 123 123
4.05447 -1.60202 3.40571 0.920247 -0.903894 0.161589 124 124 124
-0.357189 4.08221 0.214224 -0.786711 1.15251 -0.793173 124 124 124
3.33857 -0.614254 5.21446 0.54141 -0.381189 1.11873 116 116 116
-1.80291 1.70428 0.131926 -1.02316 -0.210741 -0.773776 115 115 115
5.80269 1.98274 6.05927 -0.134114 -0.80015 1.51664 220 220 220
-1.50928 3.31927 0.228336 -0.867782 0.643877 -0.722758 115 115 115
0.296174 5.10292 4.80849 -1.23532 0.298946 0.0635836 112 112 112
2.93475 5.15215 -0.824093 -0.147863 -0.239504 -1.28441 122 122 122
-1.75337 3.66753 1.78543 -0.996947 0.828169 0.10122 114 114 114
5.89484 3.92312 6.41119 -0.0853507 0.226654 1.70287 171 171 171
0.925984 -1.79561 2.28293 -0.636274 -1.853 0.238592 131 131 131
-1.89801 1.29746 2.7219 -1.07349 -0.426019 0.596779 123 123 123
2.38012 -0.628053 -1.57735 -0.273292 -0.955636 -0.837898 124 124 124
7.08797 2.70368 0.214308 0.546024 -0.418645 -1.57638 240 240 240
7.82433 0.819484 2.66336 0.935689 -1.41572 -0.280402 232 232 232
9.15553 2.95975 2.37347 1.64013 -0.28314 -0.433803 192 192 192
7.69091 2.10205 5.63299 0.865087 -0.737017 1.29106 216 216 216
7.86363 3.02125 0.533677 0.956489 -0.250595 -1.40738 236 236 236
1.76617 6.65052 -0.083551 -0.766246 0.5534 -0.89253 118 118 118
8.30583 1.19128 3.6374 1.19049 -1.21898 0.235041 224 224 224
6.79426 1.51169 5.66045 0.390599 -1.04942 1.30559 235 235 235
3.76357 0.496289 -2.18916 0.458802 -0.36066 -1.16165 108 108 108
1.47793 -2.17093 3.48606 -0.443202 -1.20495 0.204106 118 118 118
5.40853 1.04366 -0.423981 1.32928 -0.0710028 -0.227563 139 139 139
6.8927 3.88179 0.076353 0.442692 0.204784 -1.64939 233 233 233
5.29089 0.281614 0.23483 1.40253 -0.567435 -0.201029 149 149 149
-1.56404 3.32316 2.88776 -0.896759 0.645938 0.684547 118 118 118
6.80513 6.26777 1.64491 0.251761 1.21276 -0.935172 109 109 109
9.00271 2.9138 4.4361 1.55926 -0.307455 0.657694 166 166 166
8.65452 3.53946 1.24107 1.37501 0.0236305 -1.03305 215 215 215
8.64202 1.6392 2.53405 1.36839 -0.981946 -0.348831 221 221 221
-0.237864 -1.21771 2.20196 -1.25216 -1.54719 0.195741 152 152 152
9.04914 2.26415 3.49656 1.58383 -0.651239 0.160512 194 194 194
1.80128 1.91247 -1.99842 -0.579598 0.388748 -1.06072 125 125 125
9.12729 4.056 2.28901 1.62519 0.296969 -0.478497 164 164 164
2.06717 -1.99379 1.06282 -0.0323838 -1.95787 -0.407066 152 152 152
2.10143 -1.6156 0.029228 -0.0142563 -1.75775 -0.954017 151 151 151
9.29459 3.42954 3.46288 1.71372 -0.0345398 0.142689 149 149 149
6.2301 7.07747 2.53529 -0.341724 1.13199 -0.695661 34 34 34
5.41758 -0.101543 1.82323 1.74058 -0.95654 -0.00466995 165 165 165
1.57848 7.14601 3.87745 -0.991645 1.65502 0.526807 147 147 147
8.02469 1.45468 1.6035 1.04172 -1.07959 -0.841255 232 232 232
7.72509 5.27561 1.04664 0.883176 0.94236 -1.13593 187 187 187
6.01011 7.23548 4.03335 -0.458135 1.21561 0.0970791 50 50 50
5.62028 0.021868 3.32257 -0.230641 -1.8378 0.0684368 229 229 229
8.80052 5.2243 2.47382 1.01848 0.151334 -0.728191 89 89 89
0.30068 1.95458 -1.43969 -0.967171 0.131513 -1.73134 155 155 155
7.47431 1.78927 0.81742 0.75047 -0.902531 -1.25723 251 251 251
3.85757 2.59948 6.36137 0.214398 -0.750901 1.84124 145 145 145
6.66688 3.52881 6.3855 0.323193 0.0179911 1.68927 186 186 186
7.79828 3.42054 5.85834 0.921906 -0.0393027 1.41031 150 150 150
6.66523 0.703357 4.74291 0.322323 -1.47717 0.82005 239 239 239
5.2838 6.07671 0.270478 1.03216 0.669461 -1.04355 136 136 136
0.658867 -1.62953 3.07176 -0.87663 -0.918448 -0.0151334 125 125 125
1.2266 7.01817 2.73755 -1.17785 1.58737 -0.0763983 132 132 132
2.03424 1.36317 5.64633 -0.0498075 -0.181449 2.01843 138 138 138
3.84526 7.11632 5.01106 0.207879 1.63931 1.12669 133 133 133
3.43386 3.49864 -1.25221 0.555334 1.04177 -1.31003 133 133 133
4.21245 -0.190419 4.77997 1.00384 -0.156905 0.888817 137 137 137
0.11644 -1.04059 3.35479 -1.06467 -1.45346 0.805795 132 132 132
2.76457 7.44536 4.3198 -0.363993 1.81343 0.760888 146 146 146
7.32135 0.846338 1.797 0.669523 -1.40151 -0.738858 242 242 242
0.243686 3.99599 5.11607 -1.2631 -0.286817 0.226343 117 117 117
3.14599 4.15825 -1.00529 0.538502 1.29765 -1.50146 134 134 134
1.35375 0.975327 5.41926 -0.409911 -0.386685 1.89826 134 134 134
0.170385 0.634675 -1.21798 -1.03612 -0.56695 -1.61401 156 156 156
3.0894 5.43108 6.93044 0.242792 0.472601 1.18647 114 114 114
-0.341224 0.307334 4.32783 -1.30685 -0.740172 1.32071 156 156 156
7.01519 0.482182 3.83826 0.50751 -1.59421 0.34133 239 239 239
0.090469 5.45651 3.83772 -1.77907 0.760977 0.505784 131 131 131
1.62707 5.55481 -0.169088 -0.839856 -0.0264258 -0.937795 111 111 111
4.44742 1.69204 -1.8285 0.820681 0.272106 -0.970804 112 112 112
9.07832 4.40754 2.79259 1.59927 0.482997 -0.212017 106 106 106
5.69862 4.6799 0.021993 1.18864 0.350009 -1.51341 170 170 170
4.11996 -0.821335 -0.729969 0.647395 -1.05792 -0.389484 126 126 126
4.48383 -0.634326 0.054338 1.0432 -1.09872 -0.457588 132 132 132
4.43284 7.63477 3.29348 0.518816 1.91366 0.217783 126 126 126
1.9708 3.26323 6.68203 -0.34915 -0.674576 1.05502 121 121 121
7.68956 6.10034 1.93488 0.430589 0.614916 -1.01339 93 93 93
3.5242 8.03481 1.41944 0.16406 1.28593 -0.0971834 118 118 118
8.4864 2.02063 4.7697 1.28604 -0.780102 0.834225 202 202 202
4.76269 -0.798831 0.797531 1.39402 -1.32553 -0.547449 154 154 154
4.03825 7.56052 4.06299 0.310009 1.87437 0.624992 138 138 138
6.74312 2.53193 6.22071 0.363537 -0.509534 1.60207 216 216 216
3.96174 1.93403 5.99319 0.269521 -1.10304 1.64641 145 145 145
3.71589 3.87517 -0.993483 0.139421 -0.0758343 -2.05078 132 132 132
2.95824 3.37341 -1.45268 0.439147 0.882326 -1.73821 136 136 136
2.65902 7.67885 3.38825 -0.419847 1.93699 0.267934 146 146 146
7.76842 4.26175 0.539104 0.906105 0.405847 -1.40451 223 223 223
-0.049923 -0.632625 -0.185344 -1.1527 -1.23758 -1.06756 148 148 148
5.06278 7.39504 2.34363 0.852167 1.7868 -0.284855 126 126 126
-2.11374 1.11078 1.71488 -1.18765 -0.524805 0.0638854 115 115 115
5.89716 2.97188 6.39729 -0.0841246 -0.276719 1.69551 207 207 207
-0.485308 2.47514 4.42178 -1.3831 0.406983 1.37042 144 144 144
3.47919 -0.716791 -1.44517 0.308315 -1.00259 -0.767955 118 118 118
0.826854 -1.82848 1.51995 -0.688731 -1.8704 -0.16516 148 148 148
5.01854 2.71921 -0.685538 1.1229 0.81566 -0.365973 141 141 141
6.9779 5.01636 0.472986 0.487779 0.805172 -1.4395 203 203 203
4.39508 4.64318 -0.724377 0.498833 0.33058 -1.90837 136 136 136
3.51525 4.43609 -0.898729 0.0332481 0.220993 -2.00064 132 132 132
6.00431 5.15238 6.20153 -0.461204 0.113279 1.24443 98 98 98
0.426015 1.58159 5.2041 -0.900846 -0.0658657 1.78441 145 145 145
-1.13333 4.04619 0.781897 -0.668838 1.02855 -0.429826 121 121 121
8.92932 5.86419 2.86951 1.08665 0.489951 -0.5188 72 72 72
0.893183 -0.702625 -0.805534 -0.653632 -1.27462 -1.39575 148 148 148
-1.2634 2.45192 -0.398288 -0.737666 0.184895 -1.05435 124 124 124
1.82509 3.58812 -1.4314 -0.160486 0.995943 -1.72695 148 148 148
0.183536 3.40039 -0.930389 -1.02916 0.896604 -1.46182 149 149 149
2.80757 1.53206 5.74346 -0.34124 -1.31576 1.51426 135 135 135
0.291503 -0.07707 4.54444 -0.972027 -0.94359 1.43533 132 132 132
0.713507 -1.50249 4.03914 -0.847716 -0.851222 0.496783 125 125 125
4.6127 -1.12748 1.54306 1.31465 -1.49944 -0.152929 155 155 155
4.928 -0.808224 2.18528 1.4815 -1.3305 0.186919 154 154 154
-1.97843 2.40065 2.81822 -1.11604 0.157762 0.647749 116 116 116
0.99856 2.96818 -1.54653 -0.597868 0.667888 -1.78787 154 154 154
3.73316 4.44411 6.83006 0.583454 -0.0496805 1.13335 116 116 116
-1.75789 0.77844 0.748234 -0.99934 -0.700673 -0.44764 121 121 121
-0.82315 2.10095 -0.614786 -0.504697 -0.000830448 -1.16892 124 124 124
4.63462 -0.954907 2.79643 1.32625 -1.40812 0.510321 142 142 142
7.723 1.16021 4.7216 0.882066 -1.23542 0.808772 232 232 232
2.47392 6.15668 -0.673427 -0.39172 0.292067 -1.20468 117 117 117
0.948332 -1.51313 0.24188 -0.624448 -1.70352 -0.841487 147 147 147
8.34673 2.99967 5.44549 1.21213 -0.262017 1.19184 170 170 170
4.62453 5.92438 5.93919 0.728979 0.939833 1.37886 96 96 96
-0.463996 0.192401 -0.464196 -1.37182 -0.800992 -1.21513 149 149 149
0.804109 3.95388 -0.902511 -0.700767 1.1895 -1.44707 147 147 147
4.50008 4.77684 6.43499 0.5544 0.401312 1.8802 117 117 117
0.029959 -1.31799 0.97409 -1.11043 -1.60026 -0.454018 146 146 146
-0.554112 -0.448078 3.39674 -1.41951 -1.13992 0.827994 158 158 158
-0.79702 -0.541323 1.01007 -1.54805 -1.18926 -0.434976 147 147 147
4.45436 7.18891 0.193319 0.656282 0.838301 -0.746017 115 115 115
2.39032 -1.88563 4.5365 0.0396147 -1.05397 0.759977 108 108 108
7.00244 5.78634 1.09135 0.500765 1.21263 -1.11227 164 164 164
1.72949 0.110988 5.45566 -0.31008 0.00259252 1.24638 124 124 124
1.98624 7.53918 2.33191 -0.649791 1.02366 0.385678 119 119 119
4.05764 2.86084 -1.33044 0.614416 0.890604 -0.707239 121 121 121
-0.971143 0.728394 3.76115 -1.64019 -0.517357 1.02083 153 153 153
-0.003018 4.6283 0.70963 -1.12788 1.54638 -0.593964 122 122 122
5.97513 1.1549 5.44779 -0.042863 -1.23822 1.19305 255 255 255
-0.879558 -0.495902 2.45495 -1.59173 -1.16523 0.329622 153 153 153
0.291821 5.19339 1.02734 -1.67252 0.621736 -0.981405 127 127 127
5.25177 -0.161392 0.811611 1.65284 -0.988211 -0.539998 156 156 156
2.96568 1.82225 -2.36357 0.0365748 0.34101 -1.25395 118 118 118
5.14556 0.953335 5.35882 -0.481852 -1.34489 1.14598 194 194 194
0.432754 6.12589 2.03068 -1.59794 1.1152 -0.450459 131 131 131
3 0 144 189
3 0 192 144
3 192 181 144
3 181 176 144
3 176 235 144
3 235 189 144
3 235 244 189
3 244 279 189
3 279 225 189
3 225 0 189
3 225 89 0
3 89 250 0
3 250 192 0
3 250 219 192
3 219 181 192
3 219 184 181
3 184 162 181
3 162 176 181
3 162 96 176
3 96 164 176
3 164 235 176
3 164 171 235
3 171 244 235
3 171 220 244
3 220 35 244
3 35 279 244
3 35 59 279
3 59 38 279
3 38 174 279
3 174 225 279
3 174 10 225
3 10 89 225
3 10 100 89
3 100 92 89
3 92 250 89
3 92 65 250
3 65 122 250
3 122 219 250
3 122 2 219
3 2 184 219
3 2 20 184
3 20 175 184
3 175 179 184
3 179 162 184
3 179 177 162
3 177 96 162
3 177 188 96
3 188 194 96
3 194 164 96
3 194 160 164
3 160 171 164
3 160 39 171
3 39 220 171
3 39 121 220
3 121 136 220
3 136 35 220
3 136 199 35
3 199 59 35
3 199 28 59
3 28 30 59
3 30 38 59
3 30 29 38
3 29 10 38
3 10 174 38
3 29 185 10
3 185 100 10
3 185 94 100
3 94 92 100
3 94 107 92
3 107 65 92
3 107 98 65
3 98 105 65
3 105 122 65
3 105 20 122
3 20 2 122
3 105 22 20
3 22 175 20
3 22 269 175
3 269 227 175
3 227 179 175
3 227 166 179
3 166 177 179
3 166 161 177
3 161 188 177
3 161 208 188
3 208 194 188
3 208 3 194
3 3 4 194
3 4 160 194
3 4 39 160
3 4 40 39
3 40 121 39
3 40 32 121
3 32 245 121
3 245 136 121
3 245 101 136
3 101 130 136
3 130 199 136
3 130 277 199
3 277 28 199
3 277 30 28
3 277 133 30
3 133 31 30
3 31 29 30
3 31 185 29
3 31 237 185
3 237 8 185
3 8 94 185
3 8 190 94
3 190 102 94
3 102 107 94
3 102 97 107
3 97 98 107
3 97 104 98
3 104 91 98
3 91 105 98
3 91 22 105
3 91 197 22
3 197 269 22
3 197 163 269
3 163 227 269
3 163 266 227
3 266 166 227
3 266 215 166
3 215 161 166
3 215 57 161
3 57 208 161
3 57 131 208
3 131 3 208
3 131 69 3
3 69 172 3
3 172 170 3
3 170 4 3
3 170 5 4
3 5 40 4
3 5 243 40
3 243 32 40
3 243 282 32
3 282 232 32
3 232 245 32
3 232 246 245
3 246 87 245
3 87 101 245
3 87 127 101
3 127 130 101
3 127 277 130
3 127 132 277
3 132 133 277
3 132 226 133
3 226 23 133
3 23 237 133
3 237 31 133
3 23 19 237
3 19 223 237
3 223 8 237
3 223 190 8
3 223 229 190
3 229 7 190
3 7 102 190
3 7 9 102
3 9 97 102
3 9 17 97
3 17 247 97
3 247 104 97
3 247 1 104
3 1 91 104
3 1 196 91
3 196 197 91
3 196 230 197
3 230 163 197
3 230 167 163
3 167 266 163
3 167 198 266
3 198 215 266
3 198 6 215
3 6 191 215
3 191 68 215
3 68 57 215
3 68 131 57
3 68 186 131
3 186 288 131
3 288 69 131
3 288 172 69
3 288 222 172
3 222 137 172
3 137 170 172
3 137 140 170
3 140 5 170
3 140 218 5
3 218 282 5
3 282 243 5
3 218 139 282
3 139 204 282
3 204 232 282
3 204 246 232
3 204 210 246
3 210 154 246
3 154 87 246
3 154 127 87
3 154 267 127
3 267 132 127
3 267 165 132
3 165 124 132
3 124 226 132
3 124 129 226
3 129 24 226
3 24 19 226
3 19 23 226
3 24 223 19
3 24 229 223
3 24 234 229
3 234 207 229
3 207 203 229
3 203 7 229
3 203 270 7
3 270 9 7
3 270 17 9
3 270 18 17
3 18 83 17
3 83 247 17
3 83 37 247
3 37 156 247
3 156 1 247
3 156 196 1
3 156 239 196
3 239 230 196
3 239 151 230
3 151 167 230
3 151 285 167
3 285 198 167
3 285 6 198
3 285 290 6
3 290 205 6
3 205 82 6
3 82 191 6
3 82 70 191
3 70 68 191
3 70 259 68
3 259 186 68
3 259 258 186
3 258 228 186
3 228 288 186
3 228 222 288
3 228 48 222
3 48 221 222
3 221 137 222
3 221 241 137
3 241 168 137
3 168 140 137
3 168 218 140
3 168 289 218
3 289 139 218
3 289 49 139
3 49 233 139
3 233 204 139
3 233 210 204
3 233 253 210
3 253 45 210
3 45 154 210
3 45 267 154
3 45 217 267
3 217 165 267
3 217 79 165
3 79 126 165
3 126 124 165
3 126 26 124
3 26 281 124
3 281 129 124
3 281 21 129
3 21 24 129
3 21 234 24
3 21 281 234
3 281 187 234
3 187 207 234
3 187 14 207
3 14 25 207
3 25 203 207
3 25 15 203
3 15 16 203
3 16 270 203
3 16 18 270
3 16 213 18
3 213 262 18
3 262 273 18
3 273 83 18
3 273 37 83
3 273 128 37
3 128 156 37
3 128 239 156
3 128 61 239
3 61 75 239
3 75 151 239
3 75 36 151
3 36 290 151
3 290 285 151
3 36 125 290
3 125 41 290
3 41 205 290
3 41 149 205
3 149 84 205
3 84 82 205
3 84 147 82
3 147 265 82
3 265 70 82
3 265 259 70
3 265 52 259
3 52 258 259
3 52 106 258
3 106 134 258
3 134 228 258
3 134 48 228
3 134 183 48
3 183 51 48
3 51 221 48
3 51 241 221
3 51 159 241
3 159 135 241
3 135 168 241
3 135 289 168
3 135 142 289
3 142 180 289
3 180 71 289
3 71 49 289
3 71 253 49
3 253 233 49
3 71 261 253
3 261 272 253
3 272 45 253
3 272 217 45
3 272 95 217
3 95 79 217
3 95 85 79
3 85 81 79
3 81 27 79
3 27 126 79
3 27 26 126
3 27 291 26
3 291 201 26
3 201 281 26
3 201 187 281
3 201 108 187
3 108 74 187
3 74 13 187
3 13 14 187
3 13 117 14
3 117 111 14
3 111 25 14
3 111 15 25
3 111 116 15
3 116 16 15
3 116 213 16
3 116 111 213
3 111 120 213
3 120 115 213
3 115 262 213
3 115 11 262
3 11 61 262
3 61 128 262
3 128 273 262
3 11 195 61
3 195 75 61
3 195 36 75
3 195 231 36
3 231 125 36
3 231 41 125
3 231 93 41
3 93 149 41
3 93 141 149
3 141 278 149
3 278 84 149
3 278 145 84
3 145 147 84
3 145 52 147
3 52 265 147
3 145 106 52
3 145 86 106
3 86 134 106
3 86 182 134
3 182 183 134
3 182 268 183
3 268 47 183
3 47 51 183
3 47 159 51
3 47 50 159
3 50 135 159
3 50 46 135
3 46 99 135
3 99 142 135
3 99 180 142
3 99 193 180
3 193 261 180
3 261 71 180
3 193 254 261
3 254 272 261
3 254 148 272
3 148 95 272
3 148 63 95
3 63 284 95
3 284 85 95
3 284 287 85
3 287 81 85
3 287 27 81
3 287 291 27
3 287 34 291
3 34 90 291
3 90 108 291
3 108 201 291
3 90 216 108
3 216 12 108
3 12 74 108
3 12 113 74
3 113 117 74
3 117 13 74
3 113 111 117
3 113 120 111
3 113 118 120
3 118 114 120
3 114 115 120
3 114 224 115
3 224 103 115
3 103 11 115
3 103 195 11
3 103 231 195
3 103 255 231
3 255 93 231
3 255 109 93
3 109 280 93
3 280 141 93
3 280 143 141
3 143 278 141
3 143 257 278
3 257 169 278
3 169 145 278
3 169 146 145
3 146 86 145
3 146 182 86
3 146 242 182
3 242 268 182
3 242 274 268
3 274 236 268
3 236 251 268
3 251 47 268
3 251 50 47
3 251 46 50
3 251 212 46
3 212 99 46
3 212 193 99
3 212 60 193
3 60 264 193
3 264 62 193
3 62 254 193
3 62 67 254
3 67 148 254
3 67 152 148
3 152 249 148
3 249 63 148
3 249 34 63
3 34 287 63
3 287 284 63
3 249 155 34
3 155 173 34
3 173 33 34
3 33 90 34
3 33 216 90
3 33 73 216
3 73 153 216
3 153 12 216
3 153 113 12
3 153 118 113
3 153 73 118
3 73 209 118
3 209 114 118
3 209 44 114
3 44 224 114
3 44 76 224
3 76 103 224
3 76 72 103
3 72 255 103
3 72 202 255
3 202 109 255
3 202 280 109
3 202 211 280
3 211 54 280
3 54 143 280
3 54 256 143
3 256 53 143
3 53 257 143
3 53 206 257
3 206 200 257
3 200 169 257
3 200 157 169
3 157 146 169
3 157 242 146
3 157 178 242
3 178 274 242
3 178 276 274
3 276 236 274
3 276 58 236
3 58 271 236
3 271 251 236
3 271 212 251
3 271 60 212
3 271 66 60
3 66 150 60
3 150 264 60
3 150 252 264
3 252 62 264
3 252 67 62
3 252 152 67
3 252 150 152
3 150 123 152
3 123 155 152
3 155 249 152
3 123 260 155
3 260 173 155
3 260 110 173
3 110 55 173
3 55 88 173
3 88 33 173
3 88 73 33
3 88 78 73
3 78 209 73
3 78 43 209
3 43 44 209
3 43 248 44
3 248 42 44
3 42 76 44
3 42 72 76
3 42 202 72
3 42 211 202
3 42 248 211
3 248 138 211
3 138 54 211
3 138 256 54
3 138 214 256
3 214 53 256
3 214 275 53
3 275 206 53
3 275 178 206
3 178 200 206
3 178 157 200
3 275 286 178
3 286 276 178
3 286 77 276
3 77 112 276
3 112 58 276
3 112 263 58
3 263 66 58
3 66 271 58
3 263 150 66
3 263 238 150
3 238 123 150
3 238 260 123
3 238 158 260
3 158 56 260
3 56 110 260
3 56 240 110
3 240 55 110
3 240 78 55
3 78 88 55
3 240 43 78
3 240 119 43
3 119 248 43
3 119 138 248
3 119 214 138
3 119 283 214
3 283 275 214
3 283 80 275
3 80 286 275
3 80 77 286
3 80 238 77
3 238 112 77
3 238 263 112
3 80 158 238
3 80 64 158
3 64 56 158
3 64 283 56
3 283 119 56
3 119 240 56
3 64 80 283
