ply
format ascii 1.0
comment Created by Open3D
element vertex 539
property double x
property double y
property double z
property double nx
property double ny
property double nz
property uchar red
property uchar green
property uchar blue
element face 1058
property list uchar uint vertex_indices
end_header
3.03415 0.107125 -3.4144 0.631201 0.039918 -1.89736 130 130 130
1.67138 -1.30164 -3.36127 -0.0899417 -0.705571 -1.86925 134 134 134
0.957956 -1.9118 -2.94768 -0.467471 -1.02845 -1.65038 130 130 130
2.87194 -1.90775 -2.90473 0.545366 -1.02631 -1.62766 131 131 131
1.93834 -2.49026 -2.64219 0.0513274 -1.33456 -1.48873 126 126 126
2.95138 -3.54302 -0.351904 0.587403 -1.89166 -0.276759 109 109 109
2.48948 0.0847278 -3.55199 0.342974 0.028066 -1.97017 133 133 133
1.78831 -0.616436 -3.55199 -0.0280659 -0.342974 -1.97017 135 135 135
0.39417 -1.76657 -2.82159 -0.765814 -0.951599 -1.58366 130 130 130
2.12823 -1.98467 -3.01265 0.151812 -1.06701 -1.68477 133 133 133
1.36204 -2.23746 -2.81311 -0.253638 -1.20078 -1.57917 126 126 126
3.05337 -2.50297 -2.35689 0.641374 -1.34129 -1.33776 128 128 128
2.41411 -2.80897 -2.25519 0.303094 -1.50321 -1.28393 121 121 121
3.1011 -3.36843 -0.894945 0.666633 -1.79927 -0.564125 120 120 120
2.71844 -3.64355 0.258107 0.464138 -1.94485 0.0460441 120 120 120
3.06124 -3.44834 0.999034 0.645539 -1.84156 0.438126 128 128 128
3.24965 -3.21845 1.48926 0.745242 -1.7199 0.697542 124 124 124
2.24137 1.03531 -3.45064 0.211681 0.53109 -1.91654 126 126 126
1.41008 0.402729 -3.56529 -0.22822 0.196345 -1.97721 128 128 128
0.490383 -0.0674928 -3.35726 -0.714901 -0.0524857 -1.86713 132 132 132
-0.127778 -0.884301 -2.92208 -1.04202 -0.484722 -1.63684 136 136 136
-0.58885 -1.54073 -2.2591 -1.28601 -0.832091 -1.28601 131 131 131
-1.25183 -0.884301 -1.79803 -1.63684 -0.484722 -1.04202 135 135 135
-1.43232 0.815632 -1.54727 -1.73235 0.414844 -0.909322 129 129 129
-1.69101 -0.138275 -1.16224 -1.86925 -0.0899418 -0.705571 135 135 135
-1.41935 1.77151 -0.619544 -1.72549 0.920675 -0.418389 129 129 129
-0.812136 2.72232 0.109401 -1.40416 1.42382 -0.0326474 132 132 132
-1.25183 2.00082 1.08709 -1.63684 1.04202 0.484722 136 136 136
-0.58885 2.46189 1.74352 -1.28601 1.28601 0.832091 132 132 132
2.61388 1.28249 -3.31071 0.408806 0.661896 -1.84249 126 126 126
1.12199 0.0484468 -3.53923 -0.38067 0.00886692 -1.96342 132 132 132
-0.0359674 -1.36024 -2.79917 -0.993433 -0.736579 -1.5718 134 134 134
-0.795465 -0.583678 -2.46572 -1.39534 -0.325639 -1.39534 136 136 136
2.59447 3.52418 -1.06162 0.398535 1.84815 -0.652324 105 105 105
-1.6232 -0.715972 -1.14121 -1.83336 -0.395646 -0.694443 135 135 135
-1.57288 1.17717 -0.975725 -1.80673 0.606164 -0.606871 131 131 131
1.07853 3.73306 0.123628 -0.403664 1.95868 -0.0251189 133 133 133
0.529043 3.49624 0.918759 -0.694443 1.83336 0.395646 137 137 137
-1.12891 1.90901 1.56303 -1.5718 0.993433 0.736579 132 132 132
2.4201 3.71155 0.809796 0.306263 1.9473 0.337986 132 132 132
1.67138 3.56405 1.50443 -0.0899417 1.86925 0.705571 136 136 136
0.969409 3.16735 2.09245 -0.461411 1.65932 1.01674 131 131 131
3.24897 -1.19645 3.45519 0.744883 -0.649904 1.73787 127 127 127
3.25347 0.563542 3.63437 0.747261 0.281444 1.83268 121 121 121
3.06137 -0.796171 3.6511 0.64561 -0.438086 1.84154 130 130 130
3.03292 2.42521 2.84233 0.630554 1.2666 1.41355 156 156 156
2.12823 3.21544 2.18745 0.151812 1.68477 1.06701 135 135 135
0.384343 3.03513 1.9433 -0.771015 1.58935 0.937811 131 131 131
-0.0476956 -2.88688 1.65356 -0.999639 -1.54444 0.784485 127 127 127
1.83381 -2.64078 2.84357 -0.00399187 -1.41421 1.41421 135 135 135
2.75734 -1.93744 3.26427 0.484722 -1.04202 1.63684 133 133 133
-0.340719 -2.15038 2.35316 -1.1547 -1.1547 1.1547 137 137 137
0.928946 -1.76393 3.36914 -0.482823 -0.950204 1.69233 133 133 133
2.02015 -1.19626 3.74103 0.0946179 -0.649801 1.88913 129 129 129
-1.19589 -2.00236 1.13133 -1.60724 -1.07637 0.508135 133 133 133
-1.84264 -0.565172 0.767959 -1.94948 -0.315846 0.315846 135 135 135
-1.17806 -0.9186 2.23613 -1.5978 -0.502872 1.09277 134 134 134
-0.0871255 -1.38306 3.09748 -1.0205 -0.748656 1.54857 130 130 130
-1.69101 0.201656 1.50443 -1.86925 0.0899418 0.705571 134 134 134
3.19636 -2.95748 2.04542 0.717039 -1.5818 0.99185 126 126 126
-1.20787 -1.63212 -1.31828 -1.61358 -0.88045 -0.788146 128 128 128
0.8467 -3.11721 2.0094 -0.526346 -1.66633 0.97279 132 132 132
1.51442 -3.23872 2.03706 -0.173003 -1.73062 0.987425 133 133 133
-1.6232 1.344 0.918759 -1.83336 0.694443 0.395646 135 135 135
-1.38545 -1.93202 0.296959 -1.70755 -1.03915 0.0666039 129 129 129
-0.585352 -2.49328 1.59232 -1.28416 -1.33616 0.752081 132 132 132
0.405705 -2.44047 2.64326 -0.75971 -1.30821 1.30821 137 137 137
2.58901 -1.28062 3.63565 0.395646 -0.694443 1.83336 132 132 132
-1.88174 -0.616436 0.118059 -1.97017 -0.342974 -0.028066 135 135 135
-1.5398 -1.16248 1.36526 -1.78923 -0.631926 0.631926 137 137 137
0.488387 -1.48128 3.35931 -0.715956 -0.800628 1.68713 127 127 127
-1.88174 0.0847278 0.819223 -1.97017 0.028066 0.342974 135 135 135
-1.36109 -0.122613 2.1723 -1.69466 -0.0816538 1.05899 130 130 130
7.21116 1.67043 -2.21376 1.31538 0.849534 -1.24421 135 135 135
7.08488 1.15401 -2.6069 1.24856 0.576256 -1.45225 121 121 121
3.38415 -2.42988 -2.36465 -0.709787 -1.32025 -1.32406 122 122 122
7.78942 0.308136 -2.06191 1.62139 0.128639 -1.16386 125 125 125
3.01189 0.890963 -3.31828 0.619425 0.454707 -1.8465 129 129 129
4.57232 -2.86768 -2.2416 -0.0810319 -1.55193 -1.25895 122 122 122
3.80946 -3.02813 -1.83167 -0.484722 -1.63684 -1.04202 128 128 128
8.25781 0.23501 -1.19588 1.86925 0.0899418 -0.705571 134 134 134
7.88193 -1.09461 -1.58767 1.67034 -0.613663 -0.912898 125 125 125
4.55548 -3.46732 -1.19588 -0.0899416 -1.86925 -0.705571 128 128 128
7.8126 -1.87044 -0.866342 1.63365 -1.02422 -0.531189 132 132 132
5.32231 -3.61894 -0.459404 0.315846 -1.94948 -0.315846 129 129 129
7.31898 -2.68317 0.209695 1.37244 -1.45429 0.0382258 129 129 129
6.06376 -3.46762 0.253562 0.708204 -1.8694 0.0614394 124 124 124
6.68002 1.43746 -2.79177 1.03432 0.726249 -1.55008 123 123 123
4.08786 -2.62707 -2.43747 -0.3374 -1.4246 -1.36259 124 124 124
3.40374 -2.93705 -1.73998 -0.699419 -1.58864 -0.993497 124 124 124
1.09369 3.49624 1.4834 -0.395646 1.83336 0.694443 136 136 136
3.97779 -3.39951 -1.17485 -0.395646 -1.83336 -0.694443 127 127 127
7.21591 -2.29943 -1.44086 1.3179 -1.25123 -0.835211 128 128 128
8.44854 -0.583082 0.190496 1.97017 -0.342974 0.028066 133 133 133
6.74119 -3.12843 -0.0134666 1.06668 -1.68991 -0.0798662 129 129 129
6.67444 -3.1945 0.491402 0.634982 -1.00148 -0.532771 113 113 113
4.26118 3.33979 3.62546 -0.78866 0.477093 1.45217 173 173 173
5.37389 -3.65495 0.296808 0.343139 -1.96854 0.0843238 125 125 125
6.14692 2.421 -2.45352 0.752213 1.24672 -1.37109 110 110 110
6.30149 5.22795 -1.85152 0.606804 0.812954 -0.812954 98 98 98
4.82783 1.46471 -3.37177 0.0541768 0.740674 -1.85701 123 123 123
3.33618 -0.214379 -3.37551 0.0279313 -0.139039 -1.86788 120 120 120
3.30185 0.730145 -3.29988 -0.753334 0.351956 -1.81896 124 124 124
3.37219 2.89635 -2.01963 0.0469841 1.50709 -1.15038 86 86 86
3.41695 -1.16475 -3.18523 -0.692427 -0.65078 -1.75829 110 110 110
3.30746 2.56372 -2.36107 0.0127335 1.33106 -1.33107 109 109 109
6.15161 0.618193 3.59352 0.75469 0.292714 1.82887 156 156 156
1.43724 -4.26172 -0.634655 0.170865 -1.27735 -0.170865 116 116 116
6.53212 3.5126 3.84791 0.413067 0.568538 1.56989 168 168 168
7.56421 0.585438 2.84239 0.959229 -0.98045 1.03779 152 152 152
8.0577 -0.750988 1.69671 1.76335 -0.431826 0.825123 128 128 128
2.35607 -3.93462 0.0608036 0.657087 -1.10425 0.197156 123 123 123
5.28873 -2.362 3.70658 -0.0983037 -0.560934 1.16863 119 119 119
5.68729 1.91923 -3.01232 0.508984 0.981195 -1.66679 123 123 123
6.13287 2.96309 4.06618 0.201796 0.277748 1.68539 170 170 170
7.43942 -0.206331 2.74012 1.43617 -0.143606 1.37727 127 127 127
3.39272 -3.48446 -0.0915812 0.0578492 -1.86949 -0.130103 118 118 118
7.24188 4.48951 2.91489 0.788661 1.0855 1.07615 162 162 162
4.32697 -1.1945 3.67851 -0.210868 -0.666521 1.87384 91 91 91
4.12859 -0.531818 3.82145 -0.315846 -0.315846 1.94948 129 129 129
4.36705 -0.312553 -3.95018 -0.560934 0.0983039 -1.16863 123 123 123
2.37423 -3.76149 0.550319 0.6667 -1.01264 0.456196 119 119 119
3.53178 0.137729 3.72272 -0.631665 0.0384633 1.89724 129 129 129
3.36913 -3.24088 -1.09172 -0.717731 -1.74942 -0.650452 114 114 114
3.3991 -3.4188 -0.594057 0.0612255 -1.83475 -0.396001 120 120 120
4.66837 -3.63339 0.913716 -0.0302034 -1.95713 0.410777 121 121 121
7.48719 4.82714 2.23964 0.918468 1.26416 0.718826 156 156 156
2.18417 0.0799032 4.21567 0.556182 -0.248047 1.14854 122 122 122
3.46014 2.27932 3.18102 -1.21255 -0.0840832 1.21698 167 167 167
4.02733 0.771074 -3.50924 -0.36943 0.373615 -1.92975 124 124 124
3.27057 -3.46284 0.51783 -0.261156 -1.86099 0.19535 117 117 117
3.37296 -2.46236 2.66483 0.0473962 -1.32862 1.32853 124 124 124
3.47233 -0.74627 3.59991 -0.663122 -0.429329 1.83225 125 125 125
3.36766 -0.377527 3.63671 -0.718513 -0.234199 1.85173 121 121 121
7.36609 4.77005 -0.706321 0.854387 1.23395 -0.840109 115 115 115
2.07232 3.70294 -0.656028 0.122225 1.94274 -0.437695 126 126 126
6.98324 2.74414 -2.11106 0.651793 0.161886 -1.58346 133 133 133
7.6183 3.76504 -1.42512 0.987852 0.702121 -1.22048 138 138 138
-0.613456 -1.33766 2.69757 -1.29903 -0.724627 1.33695 133 133 133
8.05937 2.50911 -1.40643 1.22126 0.0375145 -1.21059 157 157 157
6.60118 3.18409 -2.23501 0.765393 -0.268611 -1.01589 102 102 102
7.59805 4.38748 -0.950512 0.977137 1.03151 -0.969329 128 128 128
8.46404 0.552631 0.546791 1.70689 -0.369895 0.0198094 170 170 170
7.43205 2.22347 -1.89262 0.889292 -0.11364 -1.46787 148 148 148
7.63545 -0.684088 -2.80181 1.16863 -0.0983039 -0.560934 122 122 122
8.16297 3.22174 -1.15238 1.27608 0.414623 -1.07615 157 157 157
6.84558 0.429302 3.28107 0.759941 -0.644463 1.40113 152 152 152
7.59785 1.7771 -1.71079 0.977028 -0.349852 -1.37165 168 168 168
2.83497 3.85543 0.987062 -1.54338 0.749957 0.0559907 131 131 131
7.97986 1.54424 -1.2908 1.17918 -0.473074 -1.1494 174 174 174
2.70275 2.77666 -2.38712 0.661564 1.09695 -0.989591 106 106 106
6.72326 5.50251 0.494113 0.514217 1.62155 -0.204866 108 108 108
-1.21911 2.2807 -1.27243 -1.20807 0.478862 -0.035561 123 123 123
2.71398 3.53042 1.59591 -0.572815 1.21471 0.566082 150 150 150
6.96333 0.648372 -3.27806 0.812954 0.606804 -0.812954 123 123 123
4.48852 5.2752 1.84093 -0.668356 1.50127 0.507838 135 135 135
-0.531988 -1.80555 -2.12587 -1.25592 -0.972228 -1.2155 116 116 116
7.64492 -1.77072 2.54922 1.14854 -0.248047 0.556182 119 119 119
3.44369 4.51609 1.84093 -1.22126 1.09956 0.507838 145 145 145
7.22824 4.9097 -0.81767 1.09722 0.64454 -0.265862 102 102 102
7.04858 3.71435 -1.87992 1.00215 0.0119901 -0.82798 87 87 87
5.13451 5.37656 2.12628 -0.326512 1.5549 0.658839 142 142 142
3.14767 3.93303 2.12628 -1.3779 0.791023 0.658839 156 156 156
8.47056 0.754372 0.301449 1.43885 -0.891053 -0.30682 234 234 234
-1.88174 0.679817 0.224133 -1.97017 0.342974 0.028066 135 135 135
0.645612 -2.89892 -2.48219 -0.248047 -0.556182 -1.14854 121 121 121
8.47659 1.03253 -0.197052 1.44204 -0.743861 -0.570615 165 165 165
8.44087 3.99101 -0.0784206 1.42313 0.8217 -0.507838 157 157 157
5.86169 -3.0487 -1.67853 0.601275 -1.64772 -0.96098 125 125 125
8.83995 2.76274 -0.0784206 1.63432 0.171728 -0.507838 168 168 168
5.74995 -0.821209 -4.15563 0.170865 -0.170865 -1.27735 119 119 119
8.55988 4.06127 0.67259 1.48611 0.858882 -0.110421 161 161 161
8.73673 3.40817 1.72532 1.5797 0.513275 0.446659 168 168 168
6.36855 5.37656 2.12628 0.326512 1.5549 0.658839 145 145 145
6.42743 -2.76679 -1.69782 0.900648 -1.49854 -0.971187 106 106 106
8.16297 4.60756 1.08992 1.27608 1.14797 0.110421 155 155 155
8.35539 3.93303 2.12628 1.3779 0.791023 0.658839 165 165 165
3.84493 1.62975 3.47233 -0.82794 -0.00921191 1.50234 201 201 201
8.83995 1.43473 0.742333 1.63432 -0.531023 -0.073514 168 168 168
8.83995 2.1137 1.84093 1.63432 -0.171728 0.507838 169 169 169
6.66501 -0.299259 3.39881 0.629992 0.530619 1.00576 111 111 111
8.97754 2.77585 0.67259 1.70713 0.178665 -0.110421 172 172 172
8.73673 2.7594 2.12628 1.5797 0.16996 0.658839 170 170 170
4.97095 4.6112 3.16894 -0.413067 1.14989 1.21059 162 162 162
3.74203 0.269007 -3.5061 -0.520405 0.107933 -1.92809 123 123 123
3.92612 3.85209 3.16894 -0.965966 0.748186 1.21059 168 168 168
4.97095 3.5126 3.84791 -0.413067 0.568538 1.56989 171 171 171
8.05937 4.51609 1.84093 1.22126 1.09956 0.507838 157 157 157
4.26118 4.48951 2.91489 -0.78866 1.0855 1.07615 163 163 163
4.01588 4.82714 2.23964 -0.918468 1.26416 0.718826 151 151 151
3.38335 3.60865 2.77505 -1.25319 0.619365 1.00215 166 166 166
0.0543404 -4.05627 -0.126 -0.560934 -1.16863 0.0983039 118 118 118
5.37019 2.96309 4.06618 -0.201795 0.277748 1.68539 171 171 171
8.38456 0.859574 -0.376216 1.93632 0.420447 -0.271825 165 165 165
8.55988 1.52573 2.23964 1.48611 -0.482867 0.718826 168 168 168
4.48852 2.02784 3.84791 -0.668356 -0.217162 1.56989 164 164 164
8.73673 1.46827 0.0371925 1.5797 -0.513275 -0.446659 167 167 167
6.21481 5.90008 -0.129496 0.560935 1.16863 0.0983039 101 101 101
3.13848 2.93572 2.74916 -1.38277 0.263268 0.988452 170 170 170
4.01588 2.58484 3.62546 -0.918468 0.0775869 1.45217 172 172 172
2.7779 3.13645 2.20894 -0.538989 1.00623 0.890482 159 159 159
-0.534644 2.21642 2.73236 -0.882551 0.882552 0.363601 123 123 123
5.13451 2.23774 4.06618 -0.326512 -0.10609 1.68539 168 168 168
7.06953 5.402 1.08992 0.697452 1.56837 0.110421 135 135 135
5.75153 1.78945 4.06618 2.32669e-07 -0.343315 1.68539 163 163 163
4.47684 1.08655 -3.49283 -0.131557 0.540555 -1.92107 119 119 119
6.53212 4.6112 3.16894 0.413067 1.14989 1.21059 160 160 160
3.43533 -0.659554 -3.34909 -0.297727 -0.278184 -1.51945 100 100 100
7.57694 3.85209 3.16894 0.965966 0.748186 1.21059 165 165 165
5.09824 1.2047 3.8166 -0.345705 -0.652753 1.55332 175 175 175
0.381303 -3.08161 1.7395 -0.772623 -1.64749 0.829966 126 126 126
6.13287 5.05217 2.77505 0.201796 1.38325 1.00215 154 154 154
6.14844 4.13423 3.62546 0.210033 0.897491 1.45217 168 168 168
4.43857 2.0814 -3.04629 -0.151812 1.06701 -1.68477 122 122 122
-0.760719 -0.760394 2.90247 -1.00218 -0.692713 0.453623 122 122 122
3.35031 1.19613 -3.2143 0.0354097 0.607368 -1.78257 122 122 122
7.66028 1.13906 3.16894 1.01007 -0.687486 1.21059 157 157 157
4.67241 -3.65804 -0.510668 -0.0280658 -1.97017 -0.342974 128 128 128
8.05937 2.36733 3.16894 1.22126 -0.0375143 1.21059 166 166 166
7.01454 2.02784 3.84791 0.668357 -0.217162 1.56989 164 164 164
1.00406 0.703267 -3.56728 -0.031613 -0.355877 -1.24994 121 121 121
8.16297 1.65469 2.91489 1.27608 -0.414623 1.07615 165 165 165
5.91962 -3.31611 -1.05671 0.631926 -1.78923 -0.631926 130 130 130
0.983133 3.74473 -0.559748 -0.0426883 1.2536 0.341574 121 121 121
8.35539 2.8833 2.77505 1.3779 0.235527 1.00215 169 169 169
6.52553 -3.4724 1.96693 0.556182 -1.14854 0.248047 118 118 118
7.06953 1.29941 3.62546 0.697452 -0.602631 1.45217 158 158 158
7.48719 2.58484 3.62546 0.918468 0.0775869 1.45217 168 168 168
6.36855 2.23774 4.06618 0.326512 -0.10609 1.68539 166 166 166
6.48708 -0.684088 -3.95018 0.560935 -0.0983039 -1.16863 120 120 120
4.73996 -2.1661 -3.40958 -0.363601 -0.882552 -0.882552 121 121 121
6.4781 -0.0295798 -3.91222 0.556182 0.248047 -1.14854 120 120 120
4.95833 -1.54935 -3.91222 -0.248047 -0.556182 -1.14854 120 120 120
7.39355 5.0613 -0.0808891 0.868917 1.38808 -0.509145 121 121 121
2.45672 -2.60512 2.80791 0.325639 -1.39534 1.39534 133 133 133
7.59749 -0.0295798 -2.79283 1.14854 0.248047 -0.556182 123 123 123
5.81414 5.69676 1.01383 0.191022 1.39269 0.386743 98 98 98
7.10617 -1.12788 -3.4209 0.888542 -0.333148 -0.888542 120 120 120
4.96903 5.90008 -1.37528 -0.0983037 1.16863 -0.560934 91 91 91
7.66028 5.06539 0.742333 1.01007 1.39024 -0.073514 142 142 142
8.83995 3.44171 1.02018 1.63432 0.531024 0.0735141 167 167 167
6.05663 -2.17742 -3.4209 0.333149 -0.888542 -0.888542 119 119 119
2.43821 -0.565172 -3.51289 0.315846 -0.315846 -1.94948 133 133 133
7.10617 -2.17742 -2.37136 0.888542 -0.888542 -0.333148 123 123 123
8.55988 3.35071 -0.477129 1.48611 0.482867 -0.718826 163 163 163
-0.354542 2.79412 -2.62357 -0.750555 0.750555 -0.750555 118 118 118
5.86482 -2.86501 -2.234 0.231647 -1.2524 -0.260462 121 121 121
3.00511 -1.03114 -3.26406 0.615833 -0.562426 -1.81781 130 130 130
4.83191 4.01458 -2.7291 -0.170865 0.170865 -1.27735 89 89 89
7.40725 -1.91988 -1.77869 1.04787 -0.752255 -0.0195232 115 115 115
6.8845 -2.45092 -1.8021 0.77124 -1.03327 -0.031908 112 112 112
7.95275 -1.27604 1.62655 1.57569 -0.468539 0.547969 118 118 118
3.81769 -1.06192 -3.51024 -0.851644 -0.298243 -0.935817 121 121 121
3.30664 0.4825 -3.34061 -0.750799 0.220908 -1.84052 122 122 122
5.2413 0.561691 -3.95018 -0.0983037 0.560934 -1.16863 123 123 123
5.89581 0.55271 -3.91222 0.248047 0.556182 -1.14854 121 121 121
6.17113 5.69338 0.682446 0.537824 1.05924 0.527965 58 58 58
5.10418 -0.175433 -4.15563 -0.170865 0.170865 -1.27735 120 120 120
6.84541 -1.91666 -3.16014 0.750556 -0.750555 -0.750555 121 121 121
3.17771 1.31368 -3.12358 0.707173 0.6784 -1.74347 114 114 114
3.95227 -1.6785 -3.31254 -0.780431 -0.624523 -0.831203 120 120 120
8.73673 2.11704 -0.36377 1.5797 -0.16996 -0.658839 169 169 169
4.92861 1.01127 -3.61471 -0.263771 0.798839 -0.991102 120 120 120
2.66296 -0.0168287 3.89204 0.62216 -0.162455 1.47316 123 123 123
3.9386 -0.0290509 -3.63899 -0.787664 0.248327 -1.00395 120 120 120
3.3435 1.0814 3.55332 -0.222561 0.543716 1.80166 133 133 133
7.41927 0.788802 -2.45929 1.23987 0.532056 -0.87691 123 123 123
6.78581 1.03273 -3.07233 0.719014 0.810199 -0.704088 122 122 122
1.95093 0.619583 -3.56074 0.0579862 0.311099 -1.97481 129 129 129
7.68766 0.275404 -2.3129 1.19626 0.409438 -0.302215 122 122 122
-1.04915 1.62493 2.32258 -1.15482 0.569546 0.146756 124 124 124
5.4584 2.67788 -2.61645 0.274264 0.423086 -1.33752 99 99 99
2.19315 0.734412 4.25364 0.560934 0.0983039 1.16863 122 122 122
5.38192 1.61732 -3.2454 0.347391 0.821427 -1.79013 121 121 121
1.7627 2.22774 3.72435 0.333148 0.888542 0.888542 122 122 122
5.94263 0.68731 3.66102 0.644105 0.329289 1.86459 162 162 162
5.47768 6.10553 0.00762498 0.170865 1.27735 0.170865 92 92 92
2.58901 -3.43286 1.4834 0.395646 -1.83336 0.694443 131 131 131
1.45602 0.871532 4.45908 0.170865 0.170865 1.27735 118 118 118
0.664396 1.59968 4.21567 -0.248047 0.556182 1.14854 117 117 117
-0.20834 2.0849 3.38673 -0.709879 0.812954 0.709879 121 121 121
7.81863 0.981036 -1.83167 1.63684 0.484722 -1.04202 135 135 135
8.44854 0.118081 -0.510668 1.97017 0.028066 -0.342974 137 137 137
4.83191 6.10553 -0.638151 -0.170865 1.27735 -0.170865 89 89 89
-1.03793 -0.403151 2.68995 -1.14888 -0.503668 0.341161 120 120 120
1.65113 -0.727236 4.06067 0.274112 -0.675167 1.06651 122 122 122
0.947369 -0.511368 4.25364 -0.0983039 -0.560934 1.16863 122 122 122
3.14249 1.91819 -2.83431 0.688532 0.99829 -1.59039 121 121 121
8.1066 -1.12912 -1.05671 1.78923 -0.631926 -0.631926 132 132 132
5.06897 5.59045 1.28395 -0.361198 1.66809 0.213099 57 57 57
5.62354 5.86211 -1.36629 0.248047 1.14854 -0.556182 90 90 90
-0.626616 -1.82756 -2.04489 -0.921281 0.0107588 -0.917129 117 117 117
8.40703 0.798771 1.78964 1.40523 -0.867558 0.480697 160 160 160
4.40519 1.52943 3.69659 -0.712452 -0.480912 1.48981 160 160 160
-0.545964 -0.080915 3.72435 -0.888542 -0.333148 0.888542 120 120 120
0.0821056 1.01739 4.21567 -0.556182 0.248047 1.14854 117 117 117
5.62354 4.74272 -2.48568 0.248047 0.556182 -1.14854 90 90 90
-1.07525 0.362877 3.10526 -1.16863 -0.0983039 0.560934 123 123 123
5.94324 -2.35301 3.66861 0.248047 -0.556182 1.14854 117 117 117
4.96903 4.75171 -2.52365 -0.0983037 0.560934 -1.16863 91 91 91
0.810248 0.225756 4.45908 -0.170865 -0.170865 1.27735 118 118 118
1.78831 3.75478 0.819223 -0.0280659 1.97017 0.342974 136 136 136
1.89016 1.3834 -3.51871 0.437289 0.00403382 -1.22424 122 122 122
8.00253 0.373861 2.16184 1.46267 -0.464496 0.874458 148 148 148
7.09485 0.188786 -3.40958 0.882552 0.363601 -0.882552 122 122 122
6.63307 5.58329 0.205948 0.782268 1.00099 0.275813 101 101 101
2.55158 2.54333 -2.77317 0.787301 0.617843 -0.829716 120 120 120
7.01454 5.2752 1.84093 0.668357 1.50127 0.507838 145 145 145
2.90106 -2.98085 -1.85025 0.560777 -1.59417 -1.06965 125 125 125
-1.20611 1.5212 1.83803 -1.61264 0.788212 0.882101 129 129 129
1.44039 2.90945 2.65131 0.162591 1.24928 0.320714 123 123 123
4.37604 -0.967062 -3.91222 -0.556181 -0.248047 -1.14854 121 121 121
2.12535 1.84267 -3.37092 0.561749 0.247067 -1.14604 121 121 121
4.34549 0.590736 -3.65993 -0.572347 0.576304 -1.01503 115 115 115
1.34938 1.07912 -3.62712 0.151122 -0.156983 -1.28161 122 122 122
4.4392 -2.57408 -2.59082 -0.522754 -1.09844 -0.449286 109 109 109
1.75091 3.04356 -2.87301 0.363601 0.882552 -0.882552 120 120 120
6.77592 2.04837 -2.33484 1.08506 1.04953 -1.30829 131 131 131
7.89194 -0.135859 -1.92972 1.42811 0.0924332 -0.430931 110 110 110
0.878035 2.43579 -3.41361 -0.0983039 0.560934 -1.16863 119 119 119
-1.12891 -1.36024 -1.70622 -1.5718 -0.736579 -0.993433 131 131 131
0.00379025 1.56154 -3.41361 -0.560934 0.098304 -1.16863 120 120 120
-1.69101 1.36503 0.341061 -1.86925 0.705571 0.0899418 135 135 135
-1.07787 -1.93072 -1.41739 -1.16007 -0.0438327 -0.58507 124 124 124
0.740914 1.69867 -3.61906 -0.170865 0.170865 -1.27735 120 120 120
-0.617597 0.642064 -2.83914 -0.889758 -0.388265 -0.864628 123 123 123
8.19 0.812707 -1.17485 1.83336 0.395646 -0.694443 141 141 141
3.90653 5.17189 1.21777 -0.818445 1.11494 0.494659 105 105 105
8.46391 0.589278 -0.0452446 1.97831 0.277413 -0.0966824 150 150 150
1.5068 -1.81131 3.45373 -0.177035 -0.975274 1.7371 133 133 133
5.51368 -2.77406 -2.66301 0.0458344 -1.20427 -0.487483 122 122 122
5.79739 -3.71582 1.17531 0.170865 -1.27735 -0.170865 120 120 120
-0.583766 3.04645 -0.477588 -0.871856 0.884083 0.385051 123 123 123
3.19641 -1.84265 3.16023 0.717068 -0.991859 1.58178 127 127 127
7.25081 3.42853 -1.82726 0.793384 0.524053 -1.43329 128 128 128
2.2105 2.91204 -2.74149 0.606804 0.812954 -0.812954 122 122 122
1.53254 3.5462 -2.25626 0.248047 1.14854 -0.556182 120 120 120
7.69327 -1.06121 2.52493 1.17412 0.127414 0.543327 121 121 121
0.434243 3.05488 -2.88433 -0.333148 0.888542 -0.888542 117 117 117
-0.615298 2.00534 -2.88433 -0.888542 0.333148 -0.888542 118 118 118
3.7606 -3.12046 1.92797 -0.510576 -1.68569 0.947496 120 120 120
-1.32017 0.35357 -1.87474 -1.673 0.170331 -1.08261 132 132 132
-1.08515 0.95387 -2.31838 -1.13718 -0.223264 -0.589053 123 123 123
-0.0215174 3.32128 -0.133106 -0.677192 1.20733 0.385264 118 118 118
0.502715 3.56571 0.226396 -0.708375 1.87012 0.0292639 133 133 133
4.07163 -2.72783 2.92439 -0.742367 -0.754523 0.754709 120 120 120
-1.03728 1.01739 3.09628 -1.14854 0.248047 0.556182 121 121 121
4.08535 2.7837 -2.4088 -0.338728 1.43865 -1.34742 2 2 2
-0.615298 3.05488 -1.83479 -0.888542 0.888542 -0.333148 118 118 118
4.06154 -3.16281 2.25712 -0.747704 -0.984709 0.401606 118 118 118
-1.2824 1.58047 -1.82858 -1.24156 0.108317 -0.329865 123 123 123
2.24905 -0.585654 3.92112 0.46559 -0.509058 1.32325 116 116 116
6.20583 4.16043 -2.48568 0.556182 0.248047 -1.14854 94 94 94
0.0127716 3.5462 -0.736489 -0.556182 1.14854 0.248047 123 123 123
-1.08018 2.50185 -0.792446 -1.13455 0.595893 0.218435 123 123 123
2.29404 3.38418 -1.83958 0.651011 1.0628 -0.335685 120 120 120
7.9268 -1.7394 1.02042 1.69408 -0.95487 0.467244 125 125 125
3.39091 -1.81787 -2.85552 -0.706208 -0.996393 -1.58382 124 124 124
0.463189 3.61101 -0.381751 -0.317831 1.18283 0.435766 122 122 122
-1.34118 0.845713 2.08364 -1.49674 0.293982 0.516195 123 123 123
-0.127778 3.12487 1.08709 -1.04202 1.63684 0.484722 137 137 137
2.3327 -3.27724 -1.89533 0.644721 -0.756382 -0.837987 122 122 122
0.0127716 0.907036 -3.37565 -0.556182 -0.248047 -1.14854 123 123 123
1.30012 -2.9079 -2.52015 0.0983039 -0.560934 -1.16863 122 122 122
1.33047 3.80187 -0.925857 0.141112 1.28383 0.147837 122 122 122
-0.806648 0.0616405 -2.52547 -1.40126 0.0158488 -1.42696 132 132 132
0.427246 -3.51567 -1.97955 -0.363601 -0.882552 -0.882552 119 119 119
7.64492 -2.35301 1.96693 1.14854 -0.556182 0.248047 119 119 119
4.55381 0.945535 3.80092 -0.090825 0.465935 1.93862 141 141 141
1.42139 -2.47797 -2.6663 0.162475 -0.333424 -1.24597 120 120 120
5.3733 -0.103143 3.85717 0.342827 -0.089001 1.96839 127 127 127
0.0674145 -1.91346 -2.5615 -0.810489 -0.697788 -1.36086 125 125 125
8.429 0.106885 0.889934 1.95984 0.0221412 0.398193 138 138 138
8.40944 -0.531818 -0.459404 1.94948 -0.315846 -0.315846 133 133 133
4.28037 -2.03458 -3.27806 -0.606804 -0.812954 -0.812954 123 123 123
5.28873 -3.51037 2.55821 -0.0983037 -1.16863 0.560934 119 119 119
3.55396 5.05457 0.937532 -0.847125 0.721205 0.662951 109 109 109
-0.553428 -2.53499 -1.97955 -0.882551 -0.363601 -0.882552 122 122 122
6.69106 5.22795 -1.46196 0.812954 0.812954 -0.606804 101 101 101
-0.227124 -3.18936 -1.84803 -0.709879 -0.709879 -0.812954 120 120 120
7.13623 -0.625016 3.17613 0.879349 0.358236 0.887926 120 120 120
5.35463 4.13423 3.62546 -0.210033 0.897491 1.45217 169 169 169
6.16161 -2.96976 3.16597 0.363602 -0.882552 0.882552 117 117 117
4.07732 0.118081 3.86055 -0.342974 0.028066 1.97017 131 131 131
-1.05607 -2.31663 -1.3628 -1.14854 -0.248047 -0.556182 122 122 122
3.46754 1.57274 3.36018 -0.665655 0.797836 1.70539 146 146 146
1.68986 -3.69787 1.19868 0.304548 -0.978969 0.799294 122 122 122
-0.534644 1.23575 3.71303 -0.882551 0.363601 0.882552 119 119 119
0.44603 2.21642 3.71303 -0.363601 0.882552 0.882552 119 119 119
-1.6232 0.779354 1.4834 -1.83336 0.395646 0.694443 134 134 134
-1.28622 -2.27367 -0.0100267 -1.27033 -0.225312 0.159674 122 122 122
0.0633218 -2.31663 -2.48219 -0.556182 -0.248047 -1.14854 123 123 123
1.09369 -1.28062 -3.29345 -0.395646 -0.694443 -1.83336 135 135 135
0.928585 -4.05627 0.748245 -0.0983039 -1.16863 0.560934 120 120 120
-1.09403 -2.9079 -0.126 -1.16863 -0.560934 0.0983039 122 122 122
6.1113 1.84963 -2.89222 0.733361 0.944361 -1.60324 125 125 125
2.86442 2.05092 -2.8555 0.541385 1.06853 -1.60161 121 121 121
3.26929 3.24858 -1.80183 -0.997767 -0.234487 -0.786655 77 77 77
6.69106 4.83839 -1.85152 0.812954 0.606804 -0.812954 101 101 101
-0.421908 -3.38415 -1.45846 -0.812954 -0.812954 -0.606804 120 120 120
2.36433 -3.95927 -0.433053 0.661461 -1.1173 -0.0641819 122 122 122
8.11971 3.60865 2.77505 1.25319 0.619365 1.00215 167 167 167
0.791465 -4.26172 0.011121 -0.170865 -1.27735 0.170865 117 117 117
-0.0359674 3.00195 1.56303 -0.993433 1.5718 0.736579 134 134 134
1.87117 3.69584 -1.22904 0.427239 1.22772 -0.0126009 121 121 121
2.75734 -3.06149 2.14022 0.484722 -1.63684 1.04202 133 133 133
6.05643 1.18072 -3.42104 0.333042 0.888508 -0.888615 121 121 121
-0.403124 1.69534 3.58151 -0.812954 0.606804 0.812954 120 120 120
1.1695 -1.27986 3.68258 0.019243 -0.967603 0.866439 109 109 109
7.78895 1.40944 -1.62089 1.62114 0.711426 -0.93048 146 146 146
2.68395 3.82133 -0.561718 -0.430815 1.037 -0.259104 83 83 83
-1.05607 -2.89892 -0.780508 -1.14854 -0.556182 -0.248047 120 120 120
5.37019 5.05217 2.77505 -0.201795 1.38325 1.00215 155 155 155
-0.564748 -3.52699 0.317792 -0.888542 -0.888542 0.333148 119 119 119
2.92489 4.25116 0.550533 -1.18002 0.296058 0.45816 105 105 105
3.48701 5.35947 0.371844 -0.882551 0.882552 0.363601 99 99 99
0.0633218 -4.01831 -0.780508 -0.556182 -1.14854 -0.248047 116 116 116
0.740914 3.78961 -1.52812 -0.170865 1.27735 -0.170865 120 120 120
-1.35499 -1.87157 -0.620064 -1.49908 -0.509848 -0.290904 121 121 121
0.531648 -3.512 1.39887 -0.308354 -0.880613 0.905229 123 123 123
0.00379025 3.58416 -1.391 -0.560934 1.16863 -0.0983039 120 120 120
1.35772 3.75739 -0.240595 -0.255928 1.97156 -0.217857 128 128 128
-0.0408727 0.275901 -3.11961 -0.687434 -0.404215 -1.19513 120 120 120
8.25781 -1.26829 0.307424 1.86925 -0.705571 0.0899418 132 132 132
5.75153 5.57704 1.72532 2.32669e-07 1.66099 0.446659 134 134 134
5.40147 5.87969 0.774196 0.130533 1.15784 0.576517 103 103 103
1.14269 -3.46104 1.53692 0.0149957 -0.853645 0.978282 110 110 110
8.35539 1.99314 -1.01254 1.3779 -0.235527 -1.00215 163 163 163
5.61283 -1.55833 -3.95018 0.0983041 -0.560934 -1.16863 120 120 120
5.76461 -3.60988 0.707914 0.15352 -1.22129 -0.418198 120 120 120
0.878035 3.58416 -2.26524 -0.0983039 1.16863 -0.560934 119 119 119
7.06829 5.23231 -0.327058 1.01258 0.815257 -0.00624168 94 94 94
4.12859 -3.61894 0.734321 -0.315846 -1.94948 0.315846 127 127 127
-1.69101 -1.30164 0.00113044 -1.86925 -0.705571 -0.0899418 133 133 133
-1.06293 -2.46416 0.644663 -1.15217 -0.326117 0.506121 119 119 119
7.69295 -2.32863 1.25414 1.17396 -0.543277 -0.12915 122 122 122
6.53451 -3.51037 1.31243 0.560935 -1.16863 -0.0983038 120 120 120
4.09478 3.87746 -2.52365 -0.560934 0.0983041 -1.16863 91 91 91
8.97754 2.10059 1.08992 1.70713 -0.178664 0.110421 173 173 173
7.14228 -1.98909 3.16597 0.882552 -0.363601 0.882552 118 118 118
3.41211 -3.33298 1.24744 0.0681121 -1.78933 0.578475 126 126 126
2.72404 1.00663 3.86029 0.841872 0.242358 0.960476 122 122 122
-0.567305 2.31058 2.00977 -1.08722 1.06916 0.477102 119 119 119
6.36309 -3.35339 0.479742 0.470223 -1.08556 -0.538942 94 94 94
2.62703 -3.67639 -0.946969 0.800474 -0.967603 -0.336135 120 120 120
0.664396 2.71906 3.09628 -0.248047 1.14854 0.556182 122 122 122
2.92563 3.81842 -1.3399 -1.17962 0.0670615 -0.542214 92 92 92
6.53451 -1.11622 3.70658 0.560935 0.0983038 1.16863 120 120 120
7.14228 -2.96976 2.1853 0.882552 -0.882552 0.363601 118 118 118
5.40412 0.632639 3.8119 0.359139 0.300358 1.94443 137 137 137
7.01076 -2.44868 3.03445 0.812954 -0.606804 0.812954 119 119 119
0.0749257 2.7701 2.19783 -0.747366 1.31233 0.576622 125 125 125
-0.553428 -3.51567 -0.998874 -0.882551 -0.882552 -0.363601 118 118 118
6.52553 -1.77072 3.66861 0.556182 -0.248047 1.14854 118 118 118
5.8419 5.35947 -1.98304 0.363602 0.882552 -0.882552 92 92 92
2.25096 -3.69792 0.849112 0.409111 -1.47631 0.486551 112 112 112
3.65909 1.9963 -2.93132 -0.564293 1.02198 -1.62393 123 123 123
4.68166 -0.70831 3.83668 -0.0231701 -0.409241 1.95755 123 123 123
4.96372 -0.845214 3.85275 -0.270293 0.241712 1.24598 114 114 114
5.78188 -0.747977 3.85983 0.16266 0.293167 1.24972 120 120 120
2.98438 4.74272 0.153478 -1.14854 0.556182 0.248047 102 102 102
-1.6232 -1.28062 -0.576567 -1.83336 -0.694443 -0.395646 133 133 133
7.56829 -2.38074 0.607222 1.50437 -1.29425 0.248588 123 123 123
1.37893 3.04311 2.40756 -0.244702 1.59358 1.18349 128 128 128
4.07732 -3.65804 0.0844216 -0.342974 -1.97017 -0.028066 127 127 127
4.95928 -3.6546 1.03756 -0.27264 -1.24495 -0.243755 113 113 113
6.66094 -3.02211 -0.866342 1.02422 -1.63365 -0.531189 132 132 132
5.15161 -3.71582 1.82108 -0.170865 -1.27735 0.170865 119 119 119
1.3189 2.75703 3.10526 0.0983039 1.16863 0.560934 124 124 124
3.29233 4.60052 1.07332 -1.14346 0.812587 0.418219 112 112 112
1.53254 2.42681 -3.37565 0.248047 0.556182 -1.14854 120 120 120
6.81598 -2.83824 2.83967 0.709879 -0.812954 0.709879 119 119 119
5.47768 3.36881 -2.7291 0.170865 -0.170865 -1.27735 94 94 94
1.3189 1.60866 4.25364 0.0983039 0.560934 1.16863 119 119 119
3.47569 5.37079 -0.944822 -0.888541 0.888542 -0.333148 90 90 90
2.94641 4.75171 -0.50103 -1.16863 0.560934 -0.0983039 96 96 96
1.30012 -4.05627 -1.37178 0.0983039 -1.16863 -0.560934 118 118 118
4.84494 -2.98108 3.17729 -0.333148 -0.888542 0.888542 118 118 118
8.19 -1.24726 0.885122 1.83336 -0.694443 0.395646 130 130 130
-1.88174 -0.0213463 -0.477031 -1.97017 -0.028066 -0.342974 135 135 135
-0.756528 -2.69488 1.03639 -0.990028 -0.448207 0.713412 121 121 121
3.91177 -1.89587 3.34018 -0.628769 -0.67597 1.33477 120 120 120
6.82258 5.35947 -1.00237 0.882552 0.882552 -0.363601 101 101 101
5.15161 -1.62487 3.91203 -0.170865 -0.170865 1.27735 120 120 120
0.475215 0.527824 -3.4345 -0.311467 -0.448718 -1.17968 122 122 122
6.82258 4.3788 -1.98304 0.882552 0.363602 -0.882552 103 103 103
7.97782 4.45271 -0.36377 1.1781 1.06602 -0.658839 144 144 144
6.21481 3.50593 -2.52365 0.560935 -0.0983038 -1.16863 103 103 103
6.20583 5.86211 -0.784004 0.556182 1.14854 -0.248047 93 93 93
6.21479 -0.176973 3.61055 0.589937 0.23363 1.47785 108 108 108
5.94324 -3.4724 2.54922 0.248047 -1.14854 0.556182 117 117 117
6.20979 2.66712 -2.33577 0.453021 -0.321076 -1.28026 39 39 39
6.51312 0.837526 3.60566 0.403015 -0.84705 1.4417 153 153 153
-1.30489 2.09884 -0.164113 -1.66492 1.09389 -0.177385 133 133 133
4.11999 3.13351 -2.47228 -0.547593 -0.295379 -1.14144 85 85 85
5.71417 1.14302 3.86215 -0.0197705 -0.685388 1.57742 155 155 155
-1.84264 0.628554 -0.425767 -1.94948 0.315846 -0.315846 134 134 134
3.47569 4.32125 -1.99436 -0.888541 0.333149 -0.888542 89 89 89
4.9823 -3.13365 -1.85919 0.135921 -1.69268 -1.05658 125 125 125
7.22116 4.19168 -1.54622 1.09347 0.264584 -0.651395 104 104 104
4.10376 5.86211 0.153478 -0.556181 1.14854 0.248047 93 93 93
2.15089 2.64902 2.87844 0.351188 1.24825 0.936785 121 121 121
2.06395 -3.53922 1.389 0.117797 -1.88965 0.644488 128 128 128
7.24188 3.33979 3.62546 0.788661 0.477093 1.45217 169 169 169
7.14285 -2.97284 0.820004 0.882852 -0.884181 -0.358883 121 121 121
2.85991 3.0819 -1.8146 0.538998 1.6141 -1.05079 110 110 110
4.52363 5.58328 1.09809 -0.439256 1.22209 0.53686 105 105 105
2.48428 2.16569 -3.04734 0.751684 0.418005 -0.974805 121 121 121
0.0731243 0.362877 4.25364 -0.560934 -0.0983039 1.16863 119 119 119
-0.795465 2.66851 0.786465 -1.39534 1.39534 0.325639 137 137 137
-0.301374 -3.21319 1.16022 -0.74917 -0.722489 0.778944 123 123 123
-1.29011 0.28897 2.35813 -1.46971 -0.000633746 0.661449 115 115 115
7.9092 -1.95131 -0.149425 1.68477 -1.06701 -0.151812 132 132 132
2.91192 2.07062 3.16791 0.566522 1.07896 1.58585 132 132 132
4.62652 2.77427 -2.63276 -0.165951 0.47409 -1.34615 87 87 87
-0.302137 -0.895221 3.42015 -0.759514 -0.764061 0.727564 124 124 124
0.529043 -0.715972 -3.29345 -0.694443 -0.395646 -1.83336 137 137 137
2.3796 2.11423 3.47017 0.659599 0.828471 0.754033 124 124 124
1.74391 -3.52699 -1.99087 0.333148 -0.888542 -0.888542 121 121 121
2.62282 3.74816 -0.0872442 -0.170928 1.32107 -0.0509176 90 90 90
8.25992 0.00734848 1.47478 1.87036 -0.0305314 0.707679 138 138 138
4.94193 -2.71145 -2.69144 -0.256721 -1.17114 -0.502528 122 122 122
3.07625 -0.0585248 3.74197 0.653483 -0.04774 1.88962 127 127 127
7.89885 -1.69426 1.43707 1.28291 -0.207582 -0.0323463 118 118 118
3.73645 5.11004 -1.73361 -0.750555 0.750556 -0.750555 92 92 92
8.54974 0.790192 1.01795 1.48075 -0.872099 0.0723379 162 162 162
0.645612 -4.01831 -1.3628 -0.248047 -1.14854 -0.556182 117 117 117
1.58309 -4.01831 0.739264 0.248047 -1.14854 0.556182 121 121 121
4.40719 -3.51197 1.53976 -0.366603 -1.53118 0.382031 96 96 96
8.24835 1.07797 -0.783097 1.86424 0.536019 -0.487137 177 177 177
0.574417 -1.14285 3.73693 -0.295662 -0.895099 0.895199 124 124 124
3.86899 -1.99786 -2.93995 -0.638858 -0.942583 -1.13126 119 119 119
2.96411 0.548862 3.74268 0.594141 0.273676 1.89 113 113 113
4.50807 -1.48207 3.74957 -0.51141 -0.0952966 1.19138 120 120 120
4.09478 5.90008 -0.50103 -0.560934 1.16863 -0.0983039 93 93 93
7.84431 -0.73388 -2.1113 1.27915 -0.124652 -0.195529 123 123 123
4.52524 5.37079 -1.99436 -0.333148 0.888542 -0.888542 87 87 87
5.5445 1.34349 -3.36029 0.062142 0.974644 -0.856469 106 106 106
2.7784 3.83645 0.290471 -1.25753 0.0766024 0.320541 85 85 85
3 0 101 242
3 0 264 101
3 264 207 101
3 207 242 101
3 207 247 242
3 247 1 242
3 1 7 242
3 7 6 242
3 6 0 242
3 6 77 0
3 77 253 0
3 253 184 0
3 184 264 0
3 184 313 264
3 313 120 264
3 120 207 264
3 120 252 207
3 252 247 207
3 252 104 247
3 104 3 247
3 3 9 247
3 9 1 247
3 9 10 1
3 10 2 1
3 2 392 1
3 392 7 1
3 392 516 7
3 516 30 7
3 30 18 7
3 18 6 7
3 18 268 6
3 268 17 6
3 17 77 6
3 17 29 77
3 29 215 77
3 215 102 77
3 102 253 77
3 102 184 253
3 102 129 184
3 129 313 184
3 129 205 313
3 205 262 313
3 262 254 313
3 254 257 313
3 257 120 313
3 257 311 120
3 311 252 120
3 311 260 252
3 260 104 252
3 260 3 104
3 260 357 3
3 357 531 3
3 531 75 3
3 75 11 3
3 11 4 3
3 4 9 3
3 4 10 9
3 4 369 10
3 369 363 10
3 363 165 10
3 165 2 10
3 165 391 2
3 391 8 2
3 8 392 2
3 8 516 392
3 8 31 516
3 31 20 516
3 20 19 516
3 19 30 516
3 19 484 30
3 484 220 30
3 220 18 30
3 220 314 18
3 314 268 18
3 314 302 268
3 302 17 268
3 302 29 17
3 302 312 29
3 312 507 29
3 507 259 29
3 259 215 29
3 259 456 215
3 456 205 215
3 205 129 215
3 129 102 215
3 456 213 205
3 213 100 205
3 100 262 205
3 100 537 262
3 537 254 262
3 537 255 254
3 255 257 254
3 255 170 257
3 170 232 257
3 232 311 257
3 232 260 311
3 232 374 260
3 374 531 260
3 531 357 260
3 374 88 531
3 88 75 531
3 88 79 75
3 79 11 75
3 79 308 11
3 308 12 11
3 12 4 11
3 12 518 4
3 518 363 4
3 363 369 4
3 518 366 363
3 366 165 363
3 366 379 165
3 379 391 165
3 379 377 391
3 377 156 391
3 156 371 391
3 371 8 391
3 371 31 8
3 371 21 31
3 21 20 31
3 21 32 20
3 32 365 20
3 365 422 20
3 422 19 20
3 422 484 19
3 422 362 484
3 362 324 484
3 324 220 484
3 324 314 220
3 324 302 314
3 324 470 302
3 470 312 302
3 470 507 312
3 470 335 507
3 335 306 507
3 306 396 507
3 396 259 507
3 396 287 259
3 287 456 259
3 287 396 456
3 396 306 456
3 306 105 456
3 105 494 456
3 494 213 456
3 494 514 213
3 514 271 213
3 271 113 213
3 113 273 213
3 273 100 213
3 273 537 100
3 273 113 537
3 113 406 537
3 406 255 537
3 406 154 255
3 154 231 255
3 231 170 255
3 231 229 170
3 229 428 170
3 428 232 170
3 428 230 232
3 230 374 232
3 230 315 374
3 315 88 374
3 315 78 88
3 78 79 88
3 78 498 79
3 498 82 79
3 82 91 79
3 91 123 79
3 123 89 79
3 89 308 79
3 89 123 308
3 123 444 308
3 444 361 308
3 361 12 308
3 361 518 12
3 361 444 518
3 444 476 518
3 476 366 518
3 476 526 366
3 526 399 366
3 399 379 366
3 399 377 379
3 399 384 377
3 384 291 377
3 291 156 377
3 291 21 156
3 21 371 156
3 291 320 21
3 320 22 21
3 22 32 21
3 22 341 32
3 341 365 32
3 341 342 365
3 342 325 365
3 325 422 365
3 325 362 422
3 325 321 362
3 321 324 362
3 321 319 324
3 319 470 324
3 319 316 470
3 316 335 470
3 316 336 335
3 336 355 335
3 355 150 335
3 150 306 335
3 150 105 306
3 150 494 105
3 355 397 150
3 397 103 150
3 397 437 103
3 437 494 103
3 437 248 494
3 248 514 494
3 248 472 514
3 472 271 514
3 472 98 271
3 98 113 271
3 98 395 113
3 395 406 113
3 395 87 406
3 87 267 406
3 267 154 406
3 267 74 154
3 74 266 154
3 266 235 154
3 235 304 154
3 304 231 154
3 304 229 231
3 304 237 229
3 237 258 229
3 258 428 229
3 258 241 428
3 241 230 428
3 241 330 230
3 330 521 230
3 521 315 230
3 521 78 315
3 521 498 78
3 521 330 498
3 330 246 498
3 246 168 498
3 168 222 498
3 222 82 498
3 222 84 82
3 84 217 82
3 217 91 82
3 217 124 91
3 124 13 91
3 13 123 91
3 13 444 123
3 13 124 444
3 124 5 444
3 5 400 444
3 400 107 444
3 107 476 444
3 107 526 476
3 107 402 526
3 402 416 526
3 416 399 526
3 416 452 399
3 452 411 399
3 411 384 399
3 411 418 384
3 418 60 384
3 60 323 384
3 323 291 384
3 323 320 291
3 323 60 320
3 60 34 320
3 34 22 320
3 34 24 22
3 24 341 22
3 24 23 341
3 23 342 341
3 23 350 342
3 350 339 342
3 339 325 342
3 339 321 325
3 339 245 321
3 245 319 321
3 245 338 319
3 338 316 319
3 338 430 316
3 430 336 316
3 430 417 336
3 417 404 336
3 404 355 336
3 404 446 355
3 446 497 355
3 497 397 355
3 497 437 397
3 497 524 437
3 524 299 437
3 299 248 437
3 299 296 248
3 296 352 248
3 352 472 248
3 352 487 472
3 487 98 472
3 487 491 98
3 491 136 98
3 136 317 98
3 317 395 98
3 317 87 395
3 317 73 87
3 73 74 87
3 74 267 87
3 73 266 74
3 73 281 266
3 281 269 266
3 269 235 266
3 269 318 235
3 318 535 235
3 535 144 235
3 144 304 235
3 144 237 304
3 144 258 237
3 144 243 258
3 243 246 258
3 246 241 258
3 246 330 241
3 243 174 246
3 174 168 246
3 174 222 168
3 174 466 222
3 466 94 222
3 94 86 222
3 86 84 222
3 86 97 84
3 97 217 84
3 97 464 217
3 464 124 217
3 464 116 124
3 116 5 124
3 116 14 5
3 14 111 5
3 111 400 5
3 111 107 400
3 111 527 107
3 527 402 107
3 527 393 402
3 393 191 402
3 191 416 402
3 191 452 416
3 191 413 452
3 413 394 452
3 394 411 452
3 394 390 411
3 390 418 411
3 390 433 418
3 433 461 418
3 461 60 418
3 461 34 60
3 461 479 34
3 479 24 34
3 479 496 24
3 496 23 24
3 496 35 23
3 35 350 23
3 35 152 350
3 152 348 350
3 348 339 350
3 348 245 339
3 348 420 245
3 420 430 245
3 430 338 245
3 420 417 430
3 420 353 417
3 353 358 417
3 358 223 417
3 223 364 417
3 364 404 417
3 364 135 404
3 135 475 404
3 475 446 404
3 475 497 446
3 475 524 497
3 475 474 524
3 474 534 524
3 534 238 524
3 238 536 524
3 536 299 524
3 536 454 299
3 454 296 299
3 454 99 296
3 99 352 296
3 99 398 352
3 398 485 352
3 485 160 352
3 160 487 352
3 160 140 487
3 140 491 487
3 140 136 491
3 140 334 136
3 334 143 136
3 143 317 136
3 143 73 317
3 143 147 73
3 147 409 73
3 409 281 73
3 409 149 281
3 149 326 281
3 326 76 281
3 76 269 281
3 76 318 269
3 76 80 318
3 80 288 318
3 288 81 318
3 81 535 318
3 81 249 535
3 249 144 535
3 249 243 144
3 249 92 243
3 92 250 243
3 250 174 243
3 250 466 174
3 250 92 466
3 92 85 466
3 85 94 466
3 85 504 94
3 504 95 94
3 95 443 94
3 443 86 94
3 443 429 86
3 429 97 86
3 429 331 97
3 331 465 97
3 465 125 97
3 125 464 97
3 125 432 464
3 432 130 464
3 130 116 464
3 130 14 116
3 130 15 14
3 15 121 14
3 121 111 14
3 121 527 111
3 121 455 527
3 455 386 527
3 386 393 527
3 386 426 393
3 426 419 393
3 419 413 393
3 413 191 393
3 419 510 413
3 510 480 413
3 480 434 413
3 434 394 413
3 434 390 394
3 434 64 390
3 64 433 390
3 64 69 433
3 69 55 433
3 55 68 433
3 68 461 433
3 68 479 461
3 68 164 479
3 164 496 479
3 164 322 496
3 322 25 496
3 25 35 496
3 25 152 35
3 25 354 152
3 354 348 152
3 354 332 348
3 332 420 348
3 332 353 420
3 332 343 353
3 343 358 353
3 343 344 358
3 344 36 358
3 36 223 358
3 36 421 223
3 421 364 223
3 421 135 364
3 421 519 135
3 519 475 135
3 519 460 475
3 460 415 475
3 415 474 475
3 415 534 474
3 415 500 534
3 500 283 534
3 283 238 534
3 283 290 238
3 290 454 238
3 454 536 238
3 290 99 454
3 290 488 99
3 488 378 99
3 378 398 99
3 378 159 398
3 159 499 398
3 499 485 398
3 499 160 485
3 499 137 160
3 137 334 160
3 334 140 160
3 137 145 334
3 145 139 334
3 139 143 334
3 139 147 143
3 139 409 147
3 139 149 409
3 139 427 149
3 427 326 149
3 427 529 326
3 529 193 326
3 193 282 326
3 282 80 326
3 80 76 326
3 282 373 80
3 373 288 80
3 373 423 288
3 423 512 288
3 512 83 288
3 83 81 288
3 83 249 81
3 83 92 249
3 83 85 92
3 83 512 85
3 512 462 85
3 462 504 85
3 462 435 504
3 435 448 504
3 448 436 504
3 436 95 504
3 436 443 95
3 436 429 443
3 436 331 429
3 436 225 331
3 225 490 331
3 490 467 331
3 467 465 331
3 467 528 465
3 528 125 465
3 528 432 125
3 528 440 432
3 440 15 432
3 15 130 432
3 440 277 15
3 277 455 15
3 455 121 15
3 277 502 455
3 502 386 455
3 502 62 386
3 62 426 386
3 62 61 426
3 61 419 426
3 61 210 419
3 210 510 419
3 210 48 510
3 48 65 510
3 65 480 510
3 65 54 480
3 54 434 480
3 54 64 434
3 54 69 64
3 54 56 69
3 56 72 69
3 72 58 69
3 58 55 69
3 58 71 55
3 71 68 55
3 71 164 68
3 71 63 164
3 63 322 164
3 63 27 322
3 27 493 322
3 493 25 322
3 493 354 25
3 493 26 354
3 26 332 354
3 26 343 332
3 26 360 343
3 360 344 343
3 360 37 344
3 37 36 344
3 37 301 36
3 301 421 36
3 301 519 421
3 301 414 519
3 414 460 519
3 414 469 460
3 469 376 460
3 376 415 460
3 376 327 415
3 327 500 415
3 327 506 500
3 506 425 500
3 425 276 500
3 276 283 500
3 276 488 283
3 488 290 283
3 276 197 488
3 197 431 488
3 431 482 488
3 482 378 488
3 482 159 378
3 482 431 159
3 431 233 159
3 233 134 159
3 134 141 159
3 141 499 159
3 141 137 499
3 141 145 137
3 141 486 145
3 486 244 145
3 244 261 145
3 261 427 145
3 427 139 145
3 261 529 427
3 261 196 529
3 196 166 529
3 166 193 529
3 166 328 193
3 328 282 193
3 328 93 282
3 93 373 282
3 93 423 373
3 93 478 423
3 478 356 423
3 356 512 423
3 356 462 512
3 356 435 462
3 356 523 435
3 523 367 435
3 367 448 435
3 367 450 448
3 450 471 448
3 471 225 448
3 225 436 448
3 471 490 225
3 471 382 490
3 382 375 490
3 375 467 490
3 375 349 467
3 349 528 467
3 349 340 528
3 340 440 528
3 340 16 440
3 16 277 440
3 16 405 277
3 405 502 277
3 405 62 502
3 405 49 62
3 49 61 62
3 49 66 61
3 66 210 61
3 66 48 210
3 66 51 48
3 51 65 48
3 51 54 65
3 51 56 54
3 51 138 56
3 138 214 56
3 214 284 56
3 284 72 56
3 284 511 72
3 511 58 72
3 511 359 58
3 359 389 58
3 389 71 58
3 389 63 71
3 389 309 63
3 309 38 63
3 38 27 63
3 38 28 27
3 28 509 27
3 509 493 27
3 509 26 493
3 509 360 26
3 509 28 360
3 28 403 360
3 403 37 360
3 403 47 37
3 47 90 37
3 90 301 37
3 90 40 301
3 40 39 301
3 39 414 301
3 39 148 414
3 148 469 414
3 148 158 469
3 158 376 469
3 158 327 376
3 158 189 327
3 189 155 327
3 155 506 327
3 155 289 506
3 289 425 506
3 289 424 425
3 424 236 425
3 236 256 425
3 256 276 425
3 256 197 276
3 256 305 197
3 305 431 197
3 305 233 431
3 305 151 233
3 151 239 233
3 239 486 233
3 486 134 233
3 486 141 134
3 239 175 486
3 175 171 486
3 171 167 486
3 167 244 486
3 167 169 244
3 169 261 244
3 169 181 261
3 181 438 261
3 438 196 261
3 438 178 196
3 178 163 196
3 163 328 196
3 328 166 196
3 163 142 328
3 142 93 328
3 142 372 93
3 372 478 93
3 372 520 478
3 520 110 478
3 110 251 478
3 251 523 478
3 523 356 478
3 251 157 523
3 157 367 523
3 157 450 367
3 157 439 450
3 439 453 450
3 453 298 450
3 298 382 450
3 382 471 450
3 298 112 382
3 112 477 382
3 477 375 382
3 477 349 375
3 477 345 349
3 345 131 349
3 131 59 349
3 59 340 349
3 59 16 340
3 59 405 16
3 59 131 405
3 131 234 405
3 234 49 405
3 234 50 49
3 50 329 49
3 329 52 49
3 52 66 49
3 52 70 66
3 70 57 66
3 57 51 66
3 57 138 51
3 57 515 138
3 515 214 138
3 515 294 214
3 294 284 214
3 294 297 284
3 297 511 284
3 297 346 511
3 346 359 511
3 346 270 359
3 270 309 359
3 309 389 359
3 270 38 309
3 270 442 38
3 442 28 38
3 442 451 28
3 451 403 28
3 451 47 403
3 451 445 47
3 445 41 47
3 41 90 47
3 41 40 90
3 41 463 40
3 463 46 40
3 46 153 40
3 153 148 40
3 148 39 40
3 153 158 148
3 153 162 158
3 162 189 158
3 162 188 189
3 188 161 189
3 161 155 189
3 161 289 155
3 161 424 289
3 161 412 424
3 412 211 424
3 211 173 424
3 173 236 424
3 173 203 236
3 203 256 236
3 203 151 256
3 151 305 256
3 203 239 151
3 203 307 239
3 307 187 239
3 187 175 239
3 187 176 175
3 176 171 175
3 176 172 171
3 172 240 171
3 240 167 171
3 240 169 167
3 240 181 169
3 240 172 181
3 172 182 181
3 182 438 181
3 182 179 438
3 179 178 438
3 179 194 178
3 194 292 178
3 292 525 178
3 525 142 178
3 142 163 178
3 525 372 142
3 525 520 372
3 525 292 520
3 292 303 520
3 303 110 520
3 303 337 110
3 337 251 110
3 337 157 251
3 337 439 157
3 337 380 439
3 380 447 439
3 447 453 439
3 447 459 453
3 459 483 453
3 483 298 453
3 483 112 298
3 483 533 112
3 533 481 112
3 481 477 112
3 481 345 477
3 481 333 345
3 333 131 345
3 333 50 131
3 50 234 131
3 333 42 50
3 42 67 50
3 67 53 50
3 53 329 50
3 53 408 329
3 408 52 329
3 408 530 52
3 530 70 52
3 530 57 70
3 530 515 57
3 530 294 515
3 530 286 294
3 286 508 294
3 508 387 294
3 387 297 294
3 387 346 297
3 387 407 346
3 407 201 346
3 201 270 346
3 201 442 270
3 201 451 442
3 201 445 451
3 201 280 445
3 280 388 445
3 388 468 445
3 468 310 445
3 310 463 445
3 463 41 445
3 310 46 463
3 310 501 46
3 501 190 46
3 190 162 46
3 162 153 46
3 190 188 162
3 190 185 188
3 185 183 188
3 183 412 188
3 412 161 188
3 183 381 412
3 381 212 412
3 212 211 412
3 212 206 211
3 206 117 211
3 117 126 211
3 126 173 211
3 126 307 173
3 307 203 173
3 126 187 307
3 126 176 187
3 126 117 176
3 117 401 176
3 401 172 176
3 401 182 172
3 401 224 182
3 224 221 182
3 221 194 182
3 194 179 182
3 221 303 194
3 303 292 194
3 221 109 303
3 109 115 303
3 115 337 303
3 115 380 337
3 115 146 380
3 146 180 380
3 180 447 380
3 180 489 447
3 489 459 447
3 489 370 459
3 370 458 459
3 458 483 459
3 458 533 483
3 458 457 533
3 457 118 533
3 118 481 533
3 118 42 481
3 42 333 481
3 118 132 42
3 132 44 42
3 44 67 42
3 44 351 67
3 351 53 67
3 351 285 53
3 285 408 53
3 285 286 408
3 286 530 408
3 285 127 286
3 127 300 286
3 300 508 286
3 300 295 508
3 295 387 508
3 295 407 387
3 295 279 407
3 279 388 407
3 388 280 407
3 280 201 407
3 279 473 388
3 473 274 388
3 274 468 388
3 274 501 468
3 501 310 468
3 274 517 501
3 517 198 501
3 198 190 501
3 198 199 190
3 199 96 190
3 96 185 190
3 96 186 185
3 186 183 185
3 186 381 183
3 186 192 381
3 192 212 381
3 192 114 212
3 114 108 212
3 108 206 212
3 108 208 206
3 208 117 206
3 208 401 117
3 208 503 401
3 503 227 401
3 227 224 401
3 227 218 224
3 218 221 224
3 218 216 221
3 216 109 221
3 216 146 109
3 146 115 109
3 216 226 146
3 226 492 146
3 492 489 146
3 489 180 146
3 492 106 489
3 106 275 489
3 275 370 489
3 275 449 370
3 449 368 370
3 368 383 370
3 383 457 370
3 457 458 370
3 383 119 457
3 119 118 457
3 119 132 118
3 119 133 132
3 133 44 132
3 133 522 44
3 522 263 44
3 263 351 44
3 263 127 351
3 127 285 351
3 263 272 127
3 272 278 127
3 278 300 127
3 278 295 300
3 278 279 295
3 278 473 279
3 278 272 473
3 272 441 473
3 441 274 473
3 441 517 274
3 441 385 517
3 385 513 517
3 385 128 513
3 385 199 128
3 199 198 128
3 198 517 128
3 385 177 199
3 177 195 199
3 195 202 199
3 202 96 199
3 202 192 96
3 192 186 96
3 202 228 192
3 228 114 192
3 228 227 114
3 227 503 114
3 503 108 114
3 503 208 108
3 228 219 227
3 219 218 227
3 219 216 218
3 219 226 216
3 219 228 226
3 228 204 226
3 204 492 226
3 204 495 492
3 495 275 492
3 275 106 492
3 495 449 275
3 495 209 449
3 209 368 449
3 209 293 368
3 293 265 368
3 265 383 368
3 265 43 383
3 43 122 383
3 122 119 383
3 122 133 119
3 122 522 133
3 122 532 522
3 532 263 522
3 532 272 263
3 532 441 272
3 532 43 441
3 43 265 441
3 265 385 441
3 265 177 385
3 265 293 177
3 293 195 177
3 293 209 195
3 209 202 195
3 209 204 202
3 204 228 202
3 209 495 204
3 532 122 43
